<?xml version="1.0" standalone="no"?>
<!DOCTYPE svg PUBLIC "-//W3C//DTD SVG 20010904//EN"
 "http://www.w3.org/TR/2001/REC-SVG-20010904/DTD/svg10.dtd">
<svg version="1.0" xmlns="http://www.w3.org/2000/svg"
 width="48.000000pt" height="48.000000pt" viewBox="0 0 48.000000 48.000000"
 preserveAspectRatio="xMidYMid meet">

<g transform="translate(0.000000,48.000000) scale(0.100000,-0.100000)"
fill="#000000" stroke="none">
<path d="M126 324 c-60 -63 -106 -117 -103 -120 3 -4 17 5 31 19 l25 25 3
-101 3 -102 155 0 155 0 5 105 5 104 18 -27 c10 -15 22 -25 28 -21 8 5 -192
225 -210 231 -4 1 -55 -50 -115 -113z m186 19 l68 -67 0 -108 0 -108 -45 0
-44 0 -3 68 -3 67 -45 0 -45 0 -3 -67 -3 -68 -44 0 -45 0 0 107 0 107 67 68
c37 38 70 68 72 68 3 0 36 -30 73 -67z m-42 -223 l0 -60 -30 0 -30 0 0 60 0
60 30 0 30 0 0 -60z"/>
</g>
</svg>
