<?xml version="1.0" encoding="utf-8"?>
<!-- Generator: Adobe Illustrator 19.2.1, SVG Export Plug-In . SVG Version: 6.00 Build 0)  -->
<svg version="1.1" id="layer" xmlns="http://www.w3.org/2000/svg" xmlns:xlink="http://www.w3.org/1999/xlink" x="0px" y="0px"
	 viewBox="0 0 652 652" style="enable-background:new 0 0 652 652;" xml:space="preserve">
<style type="text/css">
	.st0{fill:#0095DA;}
	.st1{fill:#FFFFFF;}
</style>
<path class="st0" d="M599.4,378.6h2c1.4,0,2.5-0.2,3.1-0.5c0.6-0.3,0.9-1,0.9-1.8c0-0.8-0.3-1.5-0.8-1.7c-0.5-0.4-1.5-0.5-2.9-0.5
	h-2.3V378.6z M597.9,372.8h5.1c1.3,0,2.3,0.3,3.1,0.9c0.8,0.5,1.1,1.3,1.1,2.4c0,1.9-1.1,3.1-3.4,3.5c0.9,0.5,1.5,1.1,1.9,1.7
	c0.4,0.5,1,1.9,2,4.1h-1.9c-1.2-2.5-2-4-2.7-4.6c-0.6-0.6-1.7-1-3.1-1h-0.7v5.6h-1.5V372.8z M613,379c0-2.9-1-5.4-3-7.4
	c-2-2.1-4.5-3.1-7.3-3.1c-2.9,0-5.3,1-7.3,3.1c-2,2-3,4.5-3,7.4c0,2.9,1,5.3,3,7.4c2,2,4.4,3.1,7.3,3.1c2.8,0,5.3-1,7.3-3.1
	C612,384.3,613,381.8,613,379 M590.8,379c0-3.3,1.1-6.1,3.5-8.5c2.3-2.3,5.1-3.4,8.3-3.4c3.3,0,6.1,1.2,8.4,3.4
	c2.3,2.4,3.5,5.2,3.5,8.5c0,3.3-1.2,6.1-3.5,8.5c-2.3,2.3-5.1,3.6-8.4,3.6c-3.2,0-6-1.2-8.3-3.6C592,385.1,590.8,382.2,590.8,379"/>
<path class="st1" d="M548.3,383.3L548.3,383.3c-39.9-21.4-67.6-69.7-67.2-122.4c0.1-16.6,1.8-33.3,10-48.1c0,0,26.1,13.4,57.2,13.4
	c31.2,0,57.2-13.4,57.2-13.4c8.2,14.9,9.9,31.5,10,48.1C616,313.6,588.2,361.9,548.3,383.3"/>
<path class="st0" d="M548.8,378.2c-37.6-18.7-77.5-97.7-55.4-154.3c0,0,24,9.3,55.4,9.3c31.4,0,55.4-9.3,55.4-9.3
	C626.3,280.6,586.4,359.5,548.8,378.2 M610.3,207.6c0,0-27.9,14.4-61.5,14.4s-61.5-14.4-61.5-14.4c-8.8,16.1-10.6,33.9-10.8,51.7
	C476.1,316.1,506,368,548.8,391c42.8-23,72.7-74.9,72.2-131.6C620.9,241.5,619,223.7,610.3,207.6"/>
<path class="st0" d="M571.9,256.2c-4.3,5-10.7,9.7-14.5,15.2l-0.6-0.2l-12.2-1.4l-0.2-4.9c1.9-0.6,2.9-1,4.4-2.8
	c0.2-0.6-0.8-1.3-1.3-1.8c3.1-0.3,5.2,1.8,7.9,1.8c0.4-0.2,0.2-0.7,0.2-1c-2-2.3-5.2-1.5-7.8-2.3c1.4-0.6,3.3-0.3,4.7-1.5
	c0.7-0.5,0.4-1.1-0.3-1.9c-1.4-2.3-4-5.4-7-6.8l-0.4-3.8c0-1.7,1-1.8,2.1-1.3l8.8,3.6c2,0.6,0.6,6.9,1.9,9.9c5-1.2,8.3-9,13.5-5.1
	C572,253,572.9,254.8,571.9,256.2 M557.1,301l0.4-9.9c0,0,2.3-1.7,2.3-3.4c0-1.8-1.1-4.2-12.4-4.2c-21.3,0-27-13.4-27-19.9
	c0-6.4,4.7-15,15.5-15c10.8,0,14.8,7.7,14.8,7.7s-1.6,0.7-3.3,0.8c-1.7,0.1-4.5-0.3-5.7-0.3c-1.2,0-2.9,0.5-2.9,0.5s1.6,1.7,3.9,2.3
	c2.3,0.7,3.9,2.4,3.9,2.4s-0.9,0.9-3.8,0.9c-2.9,0.1-7.3-2.2-9.5-2.2c-2.1,0-2.6,1.4-2.6,3.1c0,7.1,15.2,8.4,18.6,8.8
	c3.4,0.4,21.7,1,21.7,14.8C570.9,301.1,557.1,301,557.1,301 M545,286.5c5-0.2,10.1,0.8,10.1,0.8s0.7,6,0.2,15.4
	c-0.1,0.8-0.7,0.8-0.7,0.8l-8.2-0.5c0,0-3.7-10.5-4.6-12.6C541.3,289.2,545,286.5,545,286.5 M567,317.3c-0.7,9.1-10.6,9.2-10.6,9.2
	l0.3-8.6c0.1-1.1,0.4-2.1,0.4-2.1s0.3-1.7-6.4-1.9c-8.9-0.4-16-3.6-16-11c0-7.5,5.7-9.6,5.7-9.6s3.4,8,3.6,8.6
	c0.2,0.6-0.4,1.1,0.1,2.1c0.5,0.9,4.9,1.2,8.9,1.6C556.9,306,567.7,308.3,567,317.3 M554.6,329.7c0,0,0,1.1-0.9,0.6
	c0,0-4.4-1.9-5-2.2c-1.1-0.4-0.8-0.8-0.9-1.5l-0.1-10.6c0,0,3.9,0.6,6.4,0.6c0.5,0,0.6,0.4,0.6,0.4
	C554.6,321.5,554.7,325.3,554.6,329.7 M562.2,344.9c-0.7,2.9-3.9,4.8-6.6,5.4l0.1-5.7c0.1-1,1.3-2.8-2.5-4.3
	c-5.3-3.1-14.4-3.6-15.3-11.6c-0.4-3.2,0.9-6.2,3.8-7.4c1.6-0.7,2.5-0.9,3.9-1.4l0.3,6.4c0,0.8-0.7,2,0,2.5
	c2.4,1.2,10.5,3.9,15.1,9.1C562.3,339.7,562.7,342.3,562.2,344.9 M554.2,344.7c-0.2,9.4-0.5,16.8-0.5,17.2c0,1.3-0.6,3-2.6,3
	c-2.3,0-2.6-2-2.6-2s-0.4-10.1-0.7-21.7c0,0-0.1-1,0.6-0.9c1.5,0.5,4.3,1.8,5.1,2.5C554.5,343.5,554.2,344.7,554.2,344.7
	 M545.2,356.6c-1.1,0.9,1.6,4.9-1.6,4.5c-2.2-0.2-1.7-5.8-1.3-8.4c0.9-1.9,2.3-3.5,4.2-4.5l0.1,6.2
	C546.4,355.6,546.1,356,545.2,356.6 M548.8,240.7c-27.2,0-49.9-7.2-49.9-7.2c-16.4,55.6,18.5,116.5,49.9,136.8
	c31.4-20.4,66.4-81.3,49.9-136.8C598.7,233.5,576.1,240.7,548.8,240.7"/>
<path class="st0" d="M539.1,252.9c0.2,0.9-1.4,1.5-2.4,1.8c-1.7,0.3-1.9-2.4-3.5-2.4c0.8-0.9,3.8-0.4,5.5,0.2L539.1,252.9z"/>
<path d="M118.5,299.4c0-23.1-18.3-43.5-42.3-43.5c-21.9,0-42.4,16.3-42.4,43.1c0,24.7,18.3,43.6,42.4,43.6
	C100.9,342.7,118.5,322.4,118.5,299.4 M34.7,353.2H21.1V205.1h13.7v59.5c11.7-14.1,26.2-21.1,42.9-21.1c31.2,0,54.9,26,54.9,56.4
	c0,30.2-24.2,56.1-55.3,56.1c-17.3,0-31.6-7.6-42.5-22.5V353.2z M154.3,274.8v-69.8h13.7v67.7v80.4h-13.7V274.8z M274.2,246.3h14.5
	v55.3c0,36.1-16.3,54.1-46.9,54.1c-30.6,0-47.1-18.1-47.1-54.1v-55.3h14.5v52.1c0,11.3,0,20.5,3,27c5,10.9,16.1,17.1,29.6,17.1
	c9.9,0,18.5-3.6,24.2-9.5c8.4-9.1,8.2-19.3,8.2-34.6V246.3z M405,288.7c-5.6-22.1-21.5-32-40-32c-19.1,0-33.4,10.3-39.6,32H405z
	 M323.9,300.8c0.6,24.6,17.3,42.5,40.2,42.5c22.3,0,33-12.7,40.8-25.6l11.5,6c-10.9,21.3-27.6,32-50.9,32
	c-35.4,0-55.8-27.1-55.8-55.7c0-29.2,21.5-56.6,54.9-56.6c30.4,0,54.9,22,55.3,57.4H323.9z M125.9,427.5c-4.1,6.3-11.3,9.5-19.8,9.5
	C92.3,437,83,427,83,415.3c0-12.4,9.7-22.5,23.6-22.5c8.1,0,15.5,3.3,19.4,9.8l-4.4,2.7c-3.7-4.9-8.9-7.3-15.2-7.3
	c-10.7,0-17.8,7.9-17.8,16.9c0,9.2,7,17.2,17.8,17.2c6.1,0,11.2-2.5,15.1-7.4L125.9,427.5z M174,393.9h5.3V436H174v-7.2
	c-4.6,5.6-10.4,8.2-17,8.2c-12.3,0-21.6-10.2-21.6-22.2c0-12,9.5-22,21.7-22c6.8,0,12.6,2.9,16.8,8.8V393.9z M141,415
	c0,9.1,7.1,17.1,16.6,17.1c8.6,0,16.8-6.5,16.8-17c0-9.8-7.3-17.1-16.7-17.1C148,398,141,405.9,141,415 M195.8,377.6h5.4v28.6V436
	h-5.4v-29.8V377.6z M224.8,380.9c0,2.5-2.1,4.5-4.5,4.5c-2.5,0-4.4-2.1-4.4-4.5c0-2.5,2.1-4.4,4.4-4.4
	C222.8,376.5,224.8,378.5,224.8,380.9 M217.7,393.9h5.4V436h-5.4V393.9z M240.9,387.3c0-6.8,1.7-10.9,8.6-10.9
	c2.3,0,4.4,0.6,6.2,1.2v5.3c-1.3-0.6-2.9-1.3-5.1-1.3c-4.4,0-4.3,2.7-4.3,6.5v5.7h8.9v4.8h-8.9V436h-5.4v-37.4h-5.6v-4.8h5.6V387.3z
	 M306.3,415c0,12-9.3,22-22,22c-12.7,0-22-10.1-22-22c0-12.1,9.4-22.3,22-22.3C296.9,392.8,306.3,403,306.3,415 M267.9,415.1
	c0,9.2,6.9,16.7,16.4,16.7c9.4,0,16.4-7.5,16.4-16.7c0-9.4-7.5-17.1-16.4-17.1C275.2,398,267.9,405.8,267.9,415.1 M324.8,400
	c3.2-4.6,6.6-7.2,10.9-7.2c2.5,0,3.7,0.8,4.8,1.4l-2.9,4.6c-0.6-0.3-1.7-0.8-2.9-0.8c-4,0-7.5,3.4-9.1,9.2
	c-0.7,2.7-0.9,7.1-0.9,12.8v16h-5.7v-42.1h5.7V400z M356.7,401.4c4.4-5.7,9.6-8.6,15.8-8.6c9.2,0,15.6,6.3,15.6,19.6V436h-5.4v-22.9
	c0-9.9-3.1-15.4-11.3-15.4c-4.5,0-8.2,2-11.1,5.7c-3.2,4.1-3.6,8.3-3.6,14.9V436h-5.4v-42.1h5.4V401.4z M411,380.9
	c0,2.5-2.1,4.5-4.5,4.5s-4.4-2.1-4.4-4.5c0-2.5,2.1-4.4,4.4-4.4C408.9,376.5,411,378.5,411,380.9 M403.8,393.9h5.4V436h-5.4V393.9z
	 M461.6,393.9h5.3V436h-5.3v-7.2c-4.6,5.6-10.4,8.2-17,8.2c-12.3,0-21.6-10.2-21.6-22.2c0-12,9.5-22,21.7-22
	c6.8,0,12.6,2.9,16.8,8.8V393.9z M428.6,415c0,9.1,7.1,17.1,16.6,17.1c8.6,0,16.8-6.5,16.8-17c0-9.8-7.3-17.1-16.7-17.1
	C435.6,398,428.6,405.9,428.6,415"/>
</svg>
