<?xml version="1.0" standalone="no"?>
<!DOCTYPE svg PUBLIC "-//W3C//DTD SVG 20010904//EN"
 "http://www.w3.org/TR/2001/REC-SVG-20010904/DTD/svg10.dtd">
<svg version="1.0" xmlns="http://www.w3.org/2000/svg"
 width="48.000000pt" height="48.000000pt" viewBox="0 0 48.000000 48.000000"
 preserveAspectRatio="xMidYMid meet">

<g transform="translate(0.000000,48.000000) scale(0.100000,-0.100000)"
fill="#000000" stroke="none">
<path d="M93 419 c-75 -37 -92 -140 -33 -194 10 -9 17 -22 14 -29 -4 -11 48
-76 61 -76 3 0 22 -18 44 -41 40 -43 58 -44 91 -5 7 9 21 16 31 16 10 0 21 9
24 20 3 11 10 20 15 20 13 0 56 45 74 77 44 81 48 96 36 136 -14 49 -39 73
-89 88 -35 10 -45 9 -80 -8 -41 -20 -42 -20 -78 -2 -47 24 -58 24 -110 -2z
m117 -17 l22 -18 -47 -42 c-31 -27 -45 -47 -41 -57 9 -24 53 -17 89 15 l34 29
61 -62 c34 -35 62 -68 62 -75 0 -20 -25 -14 -50 13 -13 14 -28 25 -34 25 -5 0
3 -13 18 -29 17 -18 26 -36 23 -45 -9 -22 -20 -20 -47 9 -13 14 -28 25 -34 25
-5 0 3 -13 18 -29 17 -18 26 -36 23 -45 -10 -25 -21 -20 -76 34 -28 28 -56 50
-61 50 -6 0 -10 6 -10 14 0 21 -38 30 -57 15 -23 -20 -63 33 -63 85 0 55 52
106 108 106 23 0 49 -7 62 -18z m196 -16 c47 -47 46 -95 -3 -155 -2 -3 -33 24
-68 59 l-65 64 -32 -30 c-18 -17 -41 -34 -50 -37 -38 -13 -24 13 36 72 58 55
68 61 106 61 34 0 48 -6 76 -34z m-263 -173 c9 -9 -22 -43 -40 -43 -16 0 -17
22 -1 38 13 13 31 16 41 5z m37 -47 c0 -22 -29 -41 -42 -28 -9 9 -7 17 7 32
18 20 35 18 35 -4z m40 -29 c0 -8 -8 -21 -18 -30 -14 -13 -21 -14 -30 -5 -9 9
-8 16 5 30 19 21 43 24 43 5z m40 -41 c0 -20 -27 -39 -46 -32 -15 6 -15 8 1
26 21 23 45 26 45 6z"/>
</g>
</svg>
