<?xml version="1.0" encoding="UTF-8"?>
<svg version="1.1" xmlns="http://www.w3.org/2000/svg" width="48" height="48">
<path d="M0 0 C0.66 0 1.32 0 2 0 C2 0.99 2 1.98 2 3 C8.6 3 15.2 3 22 3 C22 2.01 22 1.02 22 0 C22.66 0 23.32 0 24 0 C24 0.99 24 1.98 24 3 C27.3 3 30.6 3 34 3 C34 14.22 34 25.44 34 37 C19.48 37 4.96 37 -10 37 C-10 25.78 -10 14.56 -10 3 C-6.7 3 -3.4 3 0 3 C0 2.01 0 1.02 0 0 Z M-8 5 C-8 6.98 -8 8.96 -8 11 C5.2 11 18.4 11 32 11 C32 9.02 32 7.04 32 5 C29.36 5 26.72 5 24 5 C24 5.99 24 6.98 24 8 C23.34 8 22.68 8 22 8 C22 7.01 22 6.02 22 5 C15.4 5 8.8 5 2 5 C2 5.99 2 6.98 2 8 C1.34 8 0.68 8 0 8 C0 7.01 0 6.02 0 5 C-2.64 5 -5.28 5 -8 5 Z M-8 13 C-8 20.26 -8 27.52 -8 35 C5.2 35 18.4 35 32 35 C32 27.74 32 20.48 32 13 C18.8 13 5.6 13 -8 13 Z " fill="#C0376C" transform="translate(12,6)"/>
<path d="M0 0 C1.32 0 2.64 0 4 0 C4 0.66 4 1.32 4 2 C2.68 2 1.36 2 0 2 C0 1.34 0 0.68 0 0 Z " fill="#C0386D" transform="translate(36,35)"/>
<path d="M0 0 C1.32 0 2.64 0 4 0 C4 0.66 4 1.32 4 2 C2.68 2 1.36 2 0 2 C0 1.34 0 0.68 0 0 Z " fill="#C0386D" transform="translate(29,35)"/>
<path d="M0 0 C1.32 0 2.64 0 4 0 C4 0.66 4 1.32 4 2 C2.68 2 1.36 2 0 2 C0 1.34 0 0.68 0 0 Z " fill="#C0386D" transform="translate(22,35)"/>
<path d="M0 0 C1.32 0 2.64 0 4 0 C4 0.66 4 1.32 4 2 C2.68 2 1.36 2 0 2 C0 1.34 0 0.68 0 0 Z " fill="#C0386D" transform="translate(15,35)"/>
<path d="M0 0 C1.32 0 2.64 0 4 0 C4 0.66 4 1.32 4 2 C2.68 2 1.36 2 0 2 C0 1.34 0 0.68 0 0 Z " fill="#C0386D" transform="translate(8,35)"/>
<path d="M0 0 C1.32 0 2.64 0 4 0 C4 0.66 4 1.32 4 2 C2.68 2 1.36 2 0 2 C0 1.34 0 0.68 0 0 Z " fill="#C0386D" transform="translate(36,29)"/>
<path d="M0 0 C1.32 0 2.64 0 4 0 C4 0.66 4 1.32 4 2 C2.68 2 1.36 2 0 2 C0 1.34 0 0.68 0 0 Z " fill="#C0386D" transform="translate(29,29)"/>
<path d="M0 0 C1.32 0 2.64 0 4 0 C4 0.66 4 1.32 4 2 C2.68 2 1.36 2 0 2 C0 1.34 0 0.68 0 0 Z " fill="#C0386D" transform="translate(22,29)"/>
<path d="M0 0 C1.32 0 2.64 0 4 0 C4 0.66 4 1.32 4 2 C2.68 2 1.36 2 0 2 C0 1.34 0 0.68 0 0 Z " fill="#C0386D" transform="translate(15,29)"/>
<path d="M0 0 C1.32 0 2.64 0 4 0 C4 0.66 4 1.32 4 2 C2.68 2 1.36 2 0 2 C0 1.34 0 0.68 0 0 Z " fill="#C0386D" transform="translate(8,29)"/>
<path d="M0 0 C1.32 0 2.64 0 4 0 C4 0.66 4 1.32 4 2 C2.68 2 1.36 2 0 2 C0 1.34 0 0.68 0 0 Z " fill="#C0386D" transform="translate(36,23)"/>
<path d="M0 0 C1.32 0 2.64 0 4 0 C4 0.66 4 1.32 4 2 C2.68 2 1.36 2 0 2 C0 1.34 0 0.68 0 0 Z " fill="#C0386D" transform="translate(29,23)"/>
<path d="M0 0 C1.32 0 2.64 0 4 0 C4 0.66 4 1.32 4 2 C2.68 2 1.36 2 0 2 C0 1.34 0 0.68 0 0 Z " fill="#C0386D" transform="translate(22,23)"/>
<path d="M0 0 C1.32 0 2.64 0 4 0 C4 0.66 4 1.32 4 2 C2.68 2 1.36 2 0 2 C0 1.34 0 0.68 0 0 Z " fill="#C0386D" transform="translate(15,23)"/>
</svg>
