<svg width="48" height="48" viewBox="0 0 48 48" fill="none" xmlns="http://www.w3.org/2000/svg">
<path fill-rule="evenodd" clip-rule="evenodd" d="M11.7775 5.70767C15.3953 3.29028 19.6488 2 24 2C29.8348 2 35.4306 4.31785 39.5564 8.44365C43.6822 12.5695 46 18.1652 46 24C46 28.3512 44.7097 32.6047 42.2923 36.2225C39.875 39.8404 36.439 42.6602 32.419 44.3253C28.3991 45.9905 23.9756 46.4261 19.708 45.5773C15.4404 44.7284 11.5204 42.6331 8.44366 39.5564C5.36691 36.4796 3.27161 32.5596 2.42273 28.292C1.57386 24.0244 2.00953 19.6009 3.67466 15.581C5.33979 11.561 8.15958 8.12506 11.7775 5.70767ZM12.8886 40.6294C16.1776 42.827 20.0444 44 24 44C29.3043 44 34.3914 41.8929 38.1421 38.1421C41.8929 34.3914 44 29.3043 44 24C44 20.0444 42.827 16.1776 40.6294 12.8886C38.4318 9.59961 35.3082 7.03616 31.6537 5.52241C27.9992 4.00866 23.9778 3.61259 20.0982 4.38429C16.2186 5.156 12.6549 7.06081 9.85787 9.85786C7.06082 12.6549 5.15601 16.2186 4.3843 20.0982C3.6126 23.9778 4.00867 27.9991 5.52242 31.6537C7.03617 35.3082 9.59962 38.4318 12.8886 40.6294ZM24 12C23.7033 12 23.4133 12.088 23.1666 12.2528C22.92 12.4176 22.7277 12.6519 22.6142 12.926C22.5007 13.2001 22.4709 13.5017 22.5288 13.7926C22.5867 14.0836 22.7296 14.3509 22.9393 14.5607C23.1491 14.7704 23.4164 14.9133 23.7074 14.9712C23.9983 15.0291 24.2999 14.9994 24.574 14.8858C24.8481 14.7723 25.0824 14.58 25.2472 14.3334C25.412 14.0867 25.5 13.7967 25.5 13.5C25.5 13.1022 25.342 12.7206 25.0607 12.4393C24.7794 12.158 24.3978 12 24 12ZM24 19C23.7348 19 23.4804 19.1054 23.2929 19.2929C23.1054 19.4804 23 19.7348 23 20V36C23 36.2652 23.1054 36.5196 23.2929 36.7071C23.4804 36.8946 23.7348 37 24 37C24.2652 37 24.5196 36.8946 24.7071 36.7071C24.8946 36.5196 25 36.2652 25 36V20C25 19.7348 24.8946 19.4804 24.7071 19.2929C24.5196 19.1054 24.2652 19 24 19Z" fill="#C0386D"/>
</svg>
