<svg width="24" height="24" viewBox="0 0 24 24" fill="none" xmlns="http://www.w3.org/2000/svg">
<path d="M22.9998 12.0023C22.9873 9.89008 22.3744 7.82551 21.2334 6.05243C20.0924 4.27936 18.471 2.87184 16.5606 1.99608C14.6502 1.12032 12.5306 0.812902 10.4522 1.11012C8.37378 1.40734 6.42328 2.29679 4.83104 3.67343C3.2388 5.05007 2.07132 6.85642 1.46646 8.87915C0.861608 10.9019 0.844639 13.0565 1.41756 15.0887C1.99048 17.1208 3.12936 18.9455 4.69972 20.3474C6.27007 21.7492 8.20632 22.6697 10.2798 23V15.2222H7.44981V12.0023H10.2398V9.54725C10.2398 6.7601 11.8798 5.22063 14.3998 5.22063C15.2238 5.23098 16.046 5.3016 16.8598 5.43193V8.16877H15.5198C15.2826 8.13736 15.0413 8.16023 14.8141 8.23569C14.5868 8.31114 14.3795 8.43723 14.2074 8.60456C14.0353 8.77189 13.903 8.97614 13.8203 9.20208C13.7376 9.42802 13.7067 9.66983 13.7298 9.90948V12.0023H16.7298L16.2398 15.2222H13.7198V23C16.3136 22.5765 18.6725 21.2368 20.3733 19.2212C22.074 17.2057 23.0052 14.6463 22.9998 12.0023Z" fill="#162C55"/>
</svg>
