<svg width="48" height="48" viewBox="0 0 48 48" fill="none" xmlns="http://www.w3.org/2000/svg">
<path d="M45.7195 26.2771L24.7321 4.31078C24.6387 4.21259 24.5264 4.1344 24.4018 4.08098C24.2772 4.02755 24.1431 4 24.0075 4C23.872 4 23.7378 4.02755 23.6133 4.08098C23.4887 4.1344 23.3763 4.21259 23.283 4.31078L2.29562 26.2771C2.20195 26.37 2.1276 26.4804 2.07686 26.6021C2.02612 26.7237 2 26.8542 2 26.9861C2 27.1179 2.02612 27.2484 2.07686 27.37C2.1276 27.4917 2.20195 27.6021 2.29562 27.695C2.48287 27.8809 2.73617 27.9853 3.0002 27.9853C3.26422 27.9853 3.51752 27.8809 3.70477 27.695L8.02217 23.1819V42.0031C8.02194 42.5225 8.22427 43.0215 8.58625 43.3943C8.94822 43.7672 9.44135 43.9844 9.961 44H38.0641C38.5837 43.9844 39.0769 43.7672 39.4388 43.3943C39.8008 43.0215 40.0031 42.5225 40.0029 42.0031V23.1819L44.2803 27.665C44.3715 27.7594 44.4805 27.835 44.6009 27.8873C44.7213 27.9397 44.8509 27.9678 44.9822 27.9701C45.1135 27.9724 45.244 27.9489 45.3662 27.9008C45.4884 27.8527 45.6 27.7811 45.6945 27.69C45.789 27.5988 45.8646 27.49 45.917 27.3697C45.9694 27.2494 45.9975 27.1199 45.9998 26.9887C46.0022 26.8575 45.9786 26.7272 45.9305 26.6051C45.8824 26.483 45.8107 26.3715 45.7195 26.2771ZM21.0143 30.0414C21.0143 30.0414 21.0743 29.9715 21.0143 29.9715H26.9408H27.0107V41.9531H21.0143V30.0414ZM38.0641 41.9531H29.0095V29.9715C28.9786 29.4519 28.7581 28.9617 28.3898 28.5937C28.0214 28.2257 27.5308 28.0054 27.0107 27.9745H21.0143C20.4936 28.0032 20.0017 28.2229 19.6329 28.5913C19.2641 28.9598 19.0443 29.4512 19.0155 29.9715V41.9531H10.021V21.0951L24.0125 6.4475L38.0041 21.0951L38.0641 41.9531Z" fill="#C0386D"/>
</svg>
