<svg width="24" height="24" viewBox="0 0 24 24" fill="none" xmlns="http://www.w3.org/2000/svg">
<path d="M12 1C15 1 15.3602 1.00027 16.4902 1.03027C17.4046 1.05116 18.3095 1.22002 19.1699 1.53027C19.921 1.80298 20.6037 2.23603 21.1699 2.7998C21.7326 3.36321 22.16 4.04719 22.4199 4.7998C22.7412 5.65441 22.9175 6.55701 22.9404 7.46973C23.0004 8.63973 23 9 23 12C23 14.9998 22.9999 15.36 22.9199 16.5498C22.9004 17.462 22.7282 18.3646 22.4102 19.2197C22.1225 19.9457 21.6899 20.6061 21.1396 21.1602C20.5886 21.7114 19.9279 22.1406 19.2002 22.4199C18.3461 22.7431 17.4432 22.9194 16.5303 22.9404C15.3603 23.0004 15 23 12 23C9.00017 23 8.62004 23.0002 7.4502 22.9502C6.53744 22.9273 5.63492 22.751 4.78027 22.4297C4.04755 22.1506 3.38293 21.7181 2.83106 21.1611C2.27919 20.6041 1.85237 19.9355 1.58008 19.2002C1.25784 18.3492 1.08152 17.4497 1.05957 16.54C0.999571 15.37 1 15 1 12C1 9.00001 0.999532 8.62999 1.01953 7.5C1.04245 6.58721 1.21874 5.68475 1.54004 4.83008C1.79994 4.0774 2.22737 3.39353 2.79004 2.83008C3.35707 2.27191 4.03984 1.84518 4.79004 1.58008C5.64472 1.25877 6.54717 1.08249 7.45996 1.05957C8.63996 0.99957 9 1 12 1ZM12 3C9.06 3 8.70973 3.00008 7.46973 3.08008C6.78685 3.09644 6.11101 3.2247 5.46973 3.45996C4.99327 3.63938 4.56288 3.92308 4.20996 4.29004C3.84086 4.64119 3.55682 5.07206 3.37988 5.5498C3.14283 6.19062 3.01452 6.8667 3 7.5498V12C3 14.93 3.00008 15.28 3.08008 16.46C3.09439 17.1431 3.22272 17.8191 3.45996 18.46C3.63927 18.9395 3.92282 19.3738 4.29004 19.7305C4.64327 20.0945 5.07394 20.3743 5.54981 20.5498C6.1899 20.7894 6.86643 20.9178 7.54981 20.9297C8.70981 20.9997 9.06 21 12 21C14.9398 21 15.2899 20.9999 16.4697 20.9199C17.1531 20.9081 17.8296 20.7796 18.4697 20.54C18.9426 20.3582 19.3727 20.0785 19.7305 19.7197C20.091 19.3579 20.3729 18.9256 20.5596 18.4502C20.7968 17.8094 20.9261 17.1333 20.9404 16.4502C21.0004 15.2902 21 14.94 21 12C21 9.06022 20.9999 8.71006 20.9199 7.53027C20.9054 6.8472 20.7771 6.17108 20.54 5.53027C20.3631 5.05246 20.0791 4.62072 19.71 4.26953C19.3571 3.90272 18.9265 3.61981 18.4502 3.44043C17.8089 3.20516 17.1331 3.07592 16.4502 3.05957C15.2902 2.99957 14.94 3 12 3ZM12 6.34961C13.4992 6.34818 14.9379 6.94198 16 8C16.5261 8.52429 16.9424 9.14835 17.2256 9.83496C17.5088 10.5215 17.6529 11.2573 17.6494 12C17.6483 13.1141 17.3185 14.2031 16.7002 15.1299C16.0746 16.056 15.1915 16.7792 14.1602 17.21C13.3903 17.5249 12.5601 17.6655 11.7295 17.6221C10.8988 17.5785 10.0873 17.3518 9.35449 16.958C8.62179 16.5643 7.985 16.0134 7.49024 15.3447C6.99545 14.676 6.65446 13.9057 6.49219 13.0898C6.32999 12.2741 6.35052 11.432 6.55176 10.625C6.75305 9.81796 7.13095 9.065 7.65723 8.4209C8.18352 7.77693 8.84602 7.25744 9.59668 6.89941C10.3475 6.54137 11.1682 6.35321 12 6.34961ZM11.8096 8.34473C11.0257 8.38381 10.2744 8.67373 9.66797 9.17188C9.06168 9.66999 8.63198 10.3501 8.44141 11.1113C8.25084 11.8726 8.30919 12.6753 8.60938 13.4004C8.88907 14.069 9.36084 14.64 9.96387 15.042C10.5669 15.4439 11.2753 15.6592 12 15.6602C12.7848 15.6583 13.5483 15.4043 14.1777 14.9355C14.8072 14.4668 15.2695 13.808 15.4961 13.0566C15.7226 12.3053 15.7009 11.5012 15.4355 10.7627C15.1702 10.0241 14.6745 9.39041 14.0215 8.95508C13.3686 8.5198 12.5933 8.30572 11.8096 8.34473ZM17.8701 4.80957C18.599 4.80974 19.1894 5.40102 19.1895 6.12988C19.1895 6.85879 18.599 7.45003 17.8701 7.4502C17.1411 7.4502 16.5498 6.8589 16.5498 6.12988C16.5499 5.40092 17.1411 4.80957 17.8701 4.80957Z" fill="#162C55"/>
</svg>
