<svg width="48" height="48" viewBox="0 0 48 48" fill="none" xmlns="http://www.w3.org/2000/svg">
<path fill-rule="evenodd" clip-rule="evenodd" d="M7.66 10.61C10.87 10.61 16.76 9.34 24 2C31.09 9.34 37 10.61 40.3 10.61C41.2135 10.6364 42.1253 10.5149 43 10.25C43 41.42 24 46 24 46C24 46 5 41.42 5 10.25C5.86083 10.5155 6.75957 10.6371 7.66 10.61ZM7 12.59C7.84 37.29 21.22 43 24 43.92C26.75 43 40.16 37.31 40.92 12.59H40.25C36.49 12.59 30.7 11.19 23.94 4.78C17.07 11.19 11.32 12.59 7.62 12.59H7ZM28.54 19.45H32.19C32.4286 19.45 32.6647 19.4971 32.885 19.5887C33.1053 19.6803 33.3052 19.8145 33.4734 19.9837C33.6416 20.1528 33.7748 20.3535 33.8651 20.5743C33.9555 20.795 34.0013 21.0315 34 21.27V26.73C34 27.211 33.8097 27.6724 33.4705 28.0134C33.1313 28.3544 32.671 28.5474 32.19 28.55H28.54V32.19C28.54 32.4285 28.4929 32.6647 28.4013 32.885C28.3097 33.1052 28.1755 33.3052 28.0064 33.4734C27.8372 33.6416 27.6365 33.7747 27.4158 33.8651C27.195 33.9555 26.9586 34.0013 26.72 34H21.27C20.7891 34 20.3276 33.8096 19.9866 33.4705C19.6456 33.1313 19.4527 32.671 19.45 32.19V28.55H15.81C15.5715 28.55 15.3353 28.5029 15.1151 28.4113C14.8948 28.3197 14.6948 28.1855 14.5266 28.0163C14.3584 27.8472 14.2253 27.6465 14.1349 27.4257C14.0446 27.205 13.9987 26.9685 14 26.73V21.27C14 20.789 14.1904 20.3276 14.5296 19.9866C14.8687 19.6456 15.3291 19.4526 15.81 19.45H19.45V15.81C19.45 15.5715 19.4972 15.3353 19.5888 15.115C19.6803 14.8948 19.8146 14.6948 19.9837 14.5266C20.1528 14.3584 20.3535 14.2253 20.5743 14.1349C20.7951 14.0445 21.0315 13.9987 21.27 14H26.72C26.9586 13.9987 27.195 14.0445 27.4158 14.1349C27.6365 14.2253 27.8372 14.3584 28.0064 14.5266C28.1755 14.6948 28.3097 14.8948 28.4013 15.115C28.4929 15.3353 28.54 15.5715 28.54 15.81V19.45ZM26.54 26.55H32V21.45H26.54V16H21.45V21.45H16V26.55H21.45V32H26.54V26.55Z" fill="#C0386D"/>
</svg>
