<?xml version="1.0" standalone="no"?>
<!DOCTYPE svg PUBLIC "-//W3C//DTD SVG 20010904//EN"
 "http://www.w3.org/TR/2001/REC-SVG-20010904/DTD/svg10.dtd">
<svg version="1.0" xmlns="http://www.w3.org/2000/svg"
 width="48.000000pt" height="48.000000pt" viewBox="0 0 48.000000 48.000000"
 preserveAspectRatio="xMidYMid meet">

<g transform="translate(0.000000,48.000000) scale(0.100000,-0.100000)"
fill="#000000" stroke="none">
<path d="M210 429 c-37 -30 -101 -59 -133 -59 l-29 0 7 -52 c16 -132 60 -219
135 -269 24 -16 46 -29 50 -29 4 0 26 13 50 29 75 50 119 137 135 269 7 51 6
52 -19 52 -34 0 -87 22 -129 54 -19 15 -36 26 -38 26 -2 0 -15 -10 -29 -21z
m45 -9 c11 -18 103 -60 131 -60 27 0 27 0 21 -57 -10 -95 -35 -151 -92 -210
-32 -33 -60 -53 -74 -53 -14 0 -42 20 -75 53 -58 58 -83 113 -93 210 l-6 57
30 0 c16 0 53 15 83 34 62 38 66 40 75 26z"/>
<path d="M207 333 c-4 -3 -7 -17 -7 -30 0 -19 -5 -23 -31 -23 -29 0 -30 -2
-27 -37 3 -33 7 -38 31 -41 23 -3 27 -8 27 -33 0 -29 2 -30 38 -27 32 3 37 7
40 31 3 23 8 27 33 27 29 0 30 2 27 38 -3 32 -7 37 -30 40 -24 3 -28 8 -28 33
0 26 -3 29 -33 29 -19 0 -37 -3 -40 -7z m63 -38 c0 -20 5 -25 25 -25 21 0 25
-5 25 -30 0 -25 -4 -30 -25 -30 -20 0 -25 -5 -25 -25 0 -21 -5 -25 -30 -25
-25 0 -30 4 -30 25 0 20 -5 25 -25 25 -21 0 -25 5 -25 30 0 25 4 30 25 30 20
0 25 5 25 25 0 21 5 25 30 25 25 0 30 -4 30 -25z"/>
</g>
</svg>
