<svg width="24" height="24" viewBox="0 0 24 24" fill="none" xmlns="http://www.w3.org/2000/svg">
<path d="M21.37 0.999882H2.62C2.19472 0.997207 1.78565 1.16291 1.48212 1.46082C1.1786 1.75872 1.00527 2.16462 1 2.58988V21.4099C1.00527 21.8351 1.1786 22.241 1.48212 22.5389C1.78565 22.8368 2.19472 23.0026 2.62 22.9999H21.37C21.5814 23.0025 21.7913 22.9635 21.9877 22.885C22.184 22.8065 22.363 22.6902 22.5143 22.5425C22.6657 22.3949 22.7865 22.2188 22.8698 22.0245C22.9532 21.8302 22.9974 21.6213 23 21.4099V2.58988C22.9974 2.37845 22.9532 2.1696 22.8698 1.97526C22.7865 1.78093 22.6657 1.60491 22.5143 1.45726C22.363 1.30961 22.184 1.19323 21.9877 1.11475C21.7913 1.03627 21.5814 0.997239 21.37 0.999882ZM7.53 19.7499H4.26V9.24988H7.53V19.7499ZM5.89 7.80988C5.51663 7.80791 5.1522 7.69538 4.84271 7.48651C4.53322 7.27764 4.29253 6.98177 4.15101 6.63625C4.0095 6.29073 3.97349 5.91103 4.04754 5.54507C4.12159 5.17911 4.30238 4.84328 4.5671 4.57995C4.83181 4.31663 5.16859 4.13762 5.53494 4.0655C5.90129 3.99338 6.28079 4.03139 6.62556 4.17473C6.97033 4.31807 7.26492 4.56031 7.47216 4.8709C7.6794 5.18149 7.78999 5.5465 7.79 5.91988C7.79 6.16892 7.74079 6.41551 7.64518 6.64547C7.54958 6.87543 7.40946 7.08423 7.2329 7.25986C7.05634 7.4355 6.8468 7.5745 6.61634 7.66889C6.38588 7.76329 6.13904 7.8112 5.89 7.80988ZM19.75 19.7499H16.48V14.6399C16.48 13.4199 16.48 11.8599 14.79 11.8599C13.1 11.8599 12.79 13.1799 12.79 14.5499V19.7499H9.57V9.24988H12.7V10.6799H12.75C13.0638 10.1478 13.5159 9.71065 14.0582 9.41485C14.6005 9.11905 15.2128 8.97565 15.83 8.99988C19.14 8.99988 19.75 11.1699 19.75 13.9999V19.7499Z" fill="#162C55"/>
</svg>
