<svg width="48" height="48" viewBox="0 0 48 48" fill="none" xmlns="http://www.w3.org/2000/svg">
<path fill-rule="evenodd" clip-rule="evenodd" d="M7 20.33C7 10.21 14.84 2 24.5 2C34.16 2 42 10.2 42 20.33C42 30.46 24.5 46 24.5 46C24.5 46 7 30.45 7 20.33ZM9 20.29C9 27.29 19.19 38.29 24.5 43.29C29.81 38.28 40 27.26 40 20.33C40 11.33 33.05 4 24.5 4C15.95 4 9 11.33 9 20.29ZM29.05 14.45H32.69C32.9286 14.45 33.1647 14.4971 33.385 14.5887C33.6053 14.6803 33.8052 14.8145 33.9734 14.9837C34.1416 15.1528 34.2748 15.3535 34.3651 15.5743C34.4555 15.795 34.5013 16.0315 34.5 16.27V21.73C34.5 22.211 34.3097 22.6724 33.9705 23.0134C33.6313 23.3544 33.171 23.5474 32.69 23.55H29.05V27.19C29.05 27.4285 29.0029 27.6647 28.9113 27.885C28.8197 28.1052 28.6855 28.3052 28.5164 28.4734C28.3472 28.6416 28.1465 28.7747 27.9258 28.8651C27.705 28.9555 27.4686 29.0013 27.23 29H21.77C21.2891 29 20.8276 28.8096 20.4866 28.4705C20.1456 28.1313 19.9527 27.671 19.95 27.19V23.55H16.31C16.0715 23.55 15.8353 23.5029 15.6151 23.4113C15.3948 23.3197 15.1948 23.1855 15.0266 23.0163C14.8584 22.8472 14.7253 22.6465 14.6349 22.4257C14.5446 22.205 14.4987 21.9685 14.5 21.73V16.27C14.5 15.789 14.6904 15.3276 15.0296 14.9866C15.3687 14.6456 15.8291 14.4526 16.31 14.45H19.95V10.81C19.95 10.5715 19.9972 10.3353 20.0888 10.115C20.1803 9.89477 20.3146 9.69479 20.4837 9.52659C20.6528 9.35838 20.8535 9.22527 21.0743 9.1349C21.2951 9.04453 21.5315 8.99868 21.77 9H27.23C27.711 8.99999 28.1724 9.19037 28.5134 9.52953C28.8545 9.86868 29.0474 10.329 29.05 10.81V14.45ZM27.05 21.55H32.5V16.45H27.05V11H21.95V16.45H16.5V21.55H21.95V27H27.05V21.55Z" fill="#C0386D"/>
</svg>
