<?xml version="1.0" standalone="no"?>
<!DOCTYPE svg PUBLIC "-//W3C//DTD SVG 20010904//EN"
 "http://www.w3.org/TR/2001/REC-SVG-20010904/DTD/svg10.dtd">
<svg version="1.0" xmlns="http://www.w3.org/2000/svg"
 width="48.000000pt" height="48.000000pt" viewBox="0 0 48.000000 48.000000"
 preserveAspectRatio="xMidYMid meet">

<g transform="translate(0.000000,48.000000) scale(0.100000,-0.100000)"
fill="#000000" stroke="none">
<path d="M193 449 c-80 -24 -137 -130 -112 -208 21 -63 135 -211 163 -211 34
0 161 171 171 230 9 54 -29 139 -77 168 -41 26 -102 34 -145 21z m148 -45 c89
-84 79 -165 -37 -299 -26 -30 -53 -55 -59 -55 -15 0 -100 100 -130 153 -42 71
-30 141 32 198 38 35 49 39 111 35 42 -2 59 -9 83 -32z"/>
<path d="M207 384 c-4 -4 -7 -18 -7 -31 0 -18 -5 -23 -25 -23 -22 0 -25 -4
-25 -40 0 -36 3 -40 24 -40 19 0 25 -6 28 -27 3 -25 7 -28 43 -28 36 0 40 3
43 28 3 21 9 27 28 27 21 0 24 4 24 40 0 36 -3 40 -24 40 -19 0 -25 6 -28 28
-3 23 -8 27 -38 30 -20 2 -39 0 -43 -4z m63 -39 c0 -21 5 -25 30 -25 27 0 30
-3 30 -30 0 -27 -3 -30 -30 -30 -25 0 -30 -4 -30 -25 0 -20 -5 -25 -25 -25
-20 0 -25 5 -25 25 0 21 -5 25 -30 25 -27 0 -30 3 -30 30 0 27 3 30 30 30 25
0 30 4 30 25 0 20 5 25 25 25 20 0 25 -5 25 -25z"/>
</g>
</svg>
