<?xml version="1.0" encoding="UTF-8"?>
<svg xmlns="http://www.w3.org/2000/svg" version="1.1" viewBox="0 0 275.5 101.5">
  <defs>
    <style>
      .cls-1 {
        fill: #0095da;
      }
    </style>
  </defs>
  <!-- Generator: Adobe Illustrator 28.7.2, SVG Export Plug-In . SVG Version: 1.2.0 Build 154)  -->
  <g>
    <g id="Layer_1">
      <g>
        <g>
          <path d="M1.4,72.3V5.9h5.7v29.9c3.4-5.4,10.2-9.7,18.8-9.7,13.1,0,22.9,10.3,22.9,23.6s-9.9,23.5-22.9,23.5-15.3-4.2-18.8-9.5v8.6H1.4ZM43.2,49.7c0-10.4-7.6-18.5-17.7-18.5S6.8,39.3,6.8,49.7s8,18.4,18.7,18.4,17.7-8,17.7-18.4Z"/>
          <path d="M62.2,5.9h5.7v66.4h-5.7V5.9Z"/>
          <path d="M119.1,27h5.6v26.9c0,11.3-7.6,19.3-20.4,19.3s-20.4-8.1-20.4-19.1v-27.2h5.6v26c0,10,5.9,15,14.9,15s14.9-5,14.9-15v-26Z"/>
          <path d="M179.6,68.8c-5.3,3.2-11,4.5-16.8,4.5-15.3,0-25.8-9.6-25.8-23.6s9.7-23.6,23.3-23.6,23.8,12.5,21.7,25.7h-38.9c.9,10.4,10.3,16.1,19.1,16.1s10.2-.4,16.3-4.2l1.2,5ZM176.7,46.9c-.4-8.9-6.4-15.5-16.2-15.5s-16.6,6.5-17.3,15.5h33.5Z"/>
        </g>
        <g>
          <path d="M14.1,97.3c-.8.3-2.1.9-4.5.9-4.8,0-8.1-3-8.1-7.3s3.3-7.3,8.1-7.3,3.6.5,4.4.9l-.2,2.1c-.8-.4-2.3-.9-4.2-.9-3.4,0-5.7,2.1-5.7,5.2s2.4,5.2,6,5.2,3.2-.5,4-.9l.3,2.1Z"/>
          <path d="M32.2,95h-7.1l-1.1,2.9h-2.3l5.8-14.1h2.4l5.8,14.1h-2.3l-1.1-2.9ZM25.6,93.2h5.9l-2.9-6.9-3,6.9Z"/>
          <path d="M54,98h-10.2v-14.1h2.2v12.1h8v2Z"/>
          <path d="M64.4,98h-2.2v-14.1h2.2v14.1Z"/>
          <path d="M77.1,98h-2.2v-14.1h9.8v2h-7.6v3.9h6v2h-6v6.2Z"/>
          <path d="M98.5,83.7c4.3,0,7.5,3.1,7.5,7.3s-3.2,7.2-7.5,7.2-7.4-3-7.4-7.2,3.2-7.3,7.4-7.3ZM98.5,96.1c3.1,0,5.2-2.1,5.2-5.1s-2.1-5.3-5.2-5.3-5.1,2.2-5.1,5.3,2.1,5.1,5.1,5.1Z"/>
          <path d="M120.1,93.7h-3.9v4.3h-2.2v-14.1h6.4c2.7,0,4.9,1.5,4.9,4.9s-1.2,3.8-3,4.5l3.9,4.7h-2.7l-3.5-4.3ZM116.2,85.8v5.8h3.8c1.7,0,3.1-1.1,3.1-2.9s-1.4-3-3.1-3h-3.8Z"/>
          <path d="M136.7,98h-2.2v-14.1h2.2l9,10.8v-10.8h2.2v14.1h-2.2l-9-10.7v10.7Z"/>
          <path d="M160.3,98h-2.2v-14.1h2.2v14.1Z"/>
          <path d="M179.1,95h-7.1l-1.1,2.9h-2.3l5.8-14.1h2.4l5.8,14.1h-2.3l-1.1-2.9ZM172.6,93.2h5.9l-2.9-6.9-3,6.9Z"/>
        </g>
        <g>
          <path class="cls-1" d="M268.3,1.4s-15,7.8-33.1,7.8-33.1-7.8-33.1-7.8c-4.7,8.6-5.7,18.2-5.8,27.8-.2,30.5,15.8,58.4,38.9,70.8,23-12.4,39.1-40.3,38.8-70.8,0-9.6-1.1-19.2-5.8-27.8Z"/>
          <g>
            <path class="cls-1" d="M264.8,92.8h-1.8v3.9h.7v-1.2h1.1l.8,1.2h.8l-.9-1.3h0c.4-.3.7-.8.7-1.2,0-.8-.6-1.4-1.5-1.4ZM264.8,95h-1.1v-1.6h1.1c.4,0,.7.3.7.8s-.3.8-.7.8Z"/>
            <path class="cls-1" d="M264.5,91.1c2.1,0,3.8,1.7,3.8,3.8s-1.7,3.8-3.8,3.8-3.8-1.7-3.8-3.8,1.7-3.8,3.8-3.8M264.5,90.3c-2.5,0-4.5,2-4.5,4.5s2,4.5,4.5,4.5,4.5-2,4.5-4.5-2-4.5-4.5-4.5h0Z"/>
          </g>
        </g>
      </g>
    </g>
  </g>
</svg>