<svg width="48" height="48" viewBox="0 0 48 48" fill="none" xmlns="http://www.w3.org/2000/svg">
<path d="M45.8245 30.6847C44.1763 28.4388 41.976 26.6549 39.436 25.5051C40.6276 22.317 40.8944 18.8579 40.2058 15.5252C40.1602 15.3256 40.0543 15.1448 39.9022 15.0073C39.7502 14.8698 39.5595 14.7824 39.356 14.7568C36.1389 14.4923 32.9137 15.1612 30.0682 16.6829C29.0201 13.6876 27.0981 11.0739 24.5495 9.178C24.3822 9.0621 24.1834 9 23.9797 9C23.776 9 23.5772 9.0621 23.4098 9.178C20.8565 11.0607 18.9328 13.6697 17.8911 16.6629C15.0396 15.1628 11.813 14.5215 8.60334 14.8167C8.39983 14.8422 8.20913 14.9297 8.05711 15.0672C7.90509 15.2046 7.79911 15.3855 7.75354 15.5851C7.07574 18.9001 7.34951 22.3387 8.54335 25.5051C6.01504 26.6556 3.82295 28.4316 2.17487 30.6648C2.06096 30.8308 2 31.0274 2 31.2286C2 31.4299 2.06096 31.6264 2.17487 31.7925C2.34483 32.042 6.52383 38 13.5422 38C18.8209 38 22.43 34.6268 23.9697 32.8404C25.5093 34.6268 29.1285 38 34.4172 38C41.4155 38 45.6345 32.0919 45.8045 31.8424C45.928 31.6755 45.9963 31.4742 45.9999 31.2667C46.0034 31.0593 45.9421 30.8558 45.8245 30.6847ZM38.3862 16.7128C38.8292 19.4415 38.5358 22.2386 37.5364 24.8165C36.5354 24.5484 35.5037 24.4108 34.4672 24.4074C32.8554 24.4094 31.2594 24.7246 29.7683 25.3355C30.3812 23.8299 30.697 22.2202 30.6981 20.595C30.6949 19.9734 30.6447 19.3529 30.5481 18.7388C32.9232 17.3566 35.6382 16.6652 38.3862 16.7428V16.7128ZM19.2608 20.595C19.2608 20.4553 19.2608 20.3256 19.2608 20.1958C19.2608 20.2557 19.3808 20.3056 19.4308 20.3655C21.5248 22.5845 22.7858 25.4581 22.9999 28.4991C22.5678 28.0829 22.114 27.6898 21.6402 27.3215C20.1533 25.3876 19.3201 23.0322 19.2608 20.595ZM28.6886 20.2357C28.6886 20.3655 28.6886 20.4852 28.6886 20.625C28.6498 23.0623 27.8299 25.4231 26.3491 27.3614C25.8492 27.7506 25.3494 28.1498 24.9994 28.5191C25.1982 25.484 26.4414 22.6107 28.5186 20.3854C28.5701 20.33 28.6271 20.2799 28.6886 20.2357ZM21.6602 30.4951C19.2008 30.6648 15.0918 30.4252 12.2925 27.6109C11.9991 27.2978 11.7285 26.9643 11.4827 26.6129C12.1395 26.4693 12.8098 26.3957 13.4822 26.3934C15.8961 26.4349 18.2304 27.2619 20.1306 28.7486C20.5975 29.3669 21.1087 29.9506 21.6602 30.4951ZM27.8088 28.7786C29.7134 27.293 32.0505 26.4663 34.4672 26.4233C35.1396 26.4256 35.8099 26.4992 36.4667 26.6429C36.2176 26.9919 35.9472 27.3252 35.6569 27.6408C32.8676 30.4452 28.7585 30.6348 26.2991 30.5151C26.8381 29.9717 27.3423 29.3951 27.8088 28.7885V28.7786ZM23.9997 11.3037C26.0581 13.0364 27.5688 15.3279 28.3486 17.9004C27.9174 18.2347 27.5068 18.5946 27.1189 18.9783C25.7398 20.3815 24.6764 22.0623 23.9997 23.9084C23.3355 22.0408 22.2749 20.3387 20.8904 18.9184C20.4984 18.5286 20.081 18.1651 19.6407 17.8306C20.4318 15.2804 21.9458 13.0135 23.9997 11.3037ZM9.57311 16.7627C12.3213 16.6841 15.0366 17.3756 17.4112 18.7587C17.3146 19.3728 17.2645 19.9933 17.2613 20.615C17.2607 22.251 17.5799 23.8714 18.2011 25.3854C16.7135 24.7743 15.1207 24.459 13.5122 24.4573C12.4757 24.4607 11.444 24.5983 10.4429 24.8664C9.44657 22.288 9.14662 19.4934 9.57311 16.7627ZM4.27437 31.2037C5.68462 29.5081 7.46687 28.1593 9.48313 27.2616C9.87891 27.8973 10.3451 28.4865 10.8728 29.0181C13.7521 31.9222 17.6312 32.551 20.4605 32.551C20.8304 32.551 21.1703 32.551 21.4603 32.551C19.3569 34.6786 16.5151 35.9184 13.5222 36.014C8.7833 35.9841 5.43409 32.5809 4.27437 31.2037ZM34.4272 35.9841C31.4132 35.8949 28.5493 34.6513 26.4291 32.511C26.769 32.511 27.1289 32.511 27.5288 32.511C30.3582 32.511 34.2172 31.8823 37.0766 28.9881C37.5991 28.4556 38.0649 27.8703 38.4662 27.2416C40.4969 28.1476 42.2874 29.5145 43.695 31.2336C42.5553 32.6108 39.1961 35.9841 34.4272 35.9841Z" fill="#C0386D"/>
</svg>
