<?xml version="1.0" standalone="no"?>
<!DOCTYPE svg PUBLIC "-//W3C//DTD SVG 20010904//EN"
 "http://www.w3.org/TR/2001/REC-SVG-20010904/DTD/svg10.dtd">
<svg version="1.0" xmlns="http://www.w3.org/2000/svg"
 width="48.000000pt" height="48.000000pt" viewBox="0 0 48.000000 48.000000"
 preserveAspectRatio="xMidYMid meet">

<g transform="translate(0.000000,48.000000) scale(0.100000,-0.100000)"
fill="#000000" stroke="none">
<path d="M218 373 c-8 -10 -21 -28 -27 -40 -10 -19 -15 -21 -37 -13 -14 6 -37
10 -51 10 -25 0 -25 -1 -21 -55 3 -30 2 -55 -2 -55 -4 0 -20 -12 -35 -26 l-27
-25 22 -24 c46 -49 122 -55 175 -14 l25 20 25 -20 c53 -41 129 -35 175 14 l22
24 -27 25 c-15 14 -31 26 -35 26 -4 0 -5 25 -2 55 4 54 4 55 -21 55 -14 0 -37
-4 -50 -9 -22 -8 -27 -5 -48 27 -29 43 -41 48 -61 25z m46 -28 c21 -31 20 -45
-4 -74 l-20 -23 -23 28 c-24 31 -24 34 -1 70 20 30 28 30 48 -1z m-94 -50 c5
-3 10 -19 10 -36 0 -27 -3 -29 -39 -29 -26 0 -41 5 -45 16 -8 20 -8 59 0 66 6
6 55 -5 74 -17z m220 -10 c0 -44 -10 -55 -51 -55 -36 0 -39 2 -39 29 0 32 14
47 50 53 34 5 40 1 40 -27z m-175 -35 c21 -41 18 -60 -5 -31 -18 21 -28 61
-15 61 2 0 11 -13 20 -30z m59 -28 c-24 -36 -30 -12 -8 30 14 26 19 29 22 15
2 -10 -4 -30 -14 -45z m-77 -23 c18 -15 17 -29 -2 -29 -23 0 -75 29 -75 42 0
13 57 3 77 -13z m163 12 c0 -15 -25 -31 -60 -37 -25 -6 -32 -4 -28 7 9 26 88
53 88 30z m-238 -26 c17 -14 42 -25 59 -25 33 0 36 -7 12 -26 -27 -20 -83 -17
-122 7 l-33 20 23 25 c12 13 24 24 27 24 2 0 17 -11 34 -25z m297 1 l23 -25
-33 -20 c-38 -24 -76 -27 -114 -9 -35 16 -31 24 13 32 21 3 47 15 57 26 23 25
27 25 54 -4z"/>
</g>
</svg>
