<?xml version="1.0" encoding="UTF-8"?><svg id="Layer_1" xmlns="http://www.w3.org/2000/svg" viewBox="0 0 306 144"><defs><style>.cls-1{fill:#0095da;}.cls-2{fill:#fff;}.cls-3{fill:#231f20;}</style></defs><g><path class="cls-1" d="M256.47,70.6c0-.49,.17-.92,.52-1.27,.34-.34,.76-.52,1.25-.52s.91,.17,1.26,.52c.35,.35,.52,.79,.52,1.27s-.17,.92-.52,1.27c-.35,.35-.76,.53-1.26,.53s-.91-.18-1.25-.53c-.35-.35-.52-.78-.52-1.27m3.33,0c0-.43-.15-.81-.45-1.11-.31-.31-.67-.46-1.1-.46s-.79,.15-1.1,.46c-.31,.3-.45,.68-.45,1.11s.15,.8,.45,1.11c.31,.31,.67,.46,1.1,.46s.79-.15,1.1-.46c.3-.31,.45-.68,.45-1.11m-2.27-.92h.77c.19,0,.35,.04,.46,.14,.11,.08,.17,.19,.17,.36,0,.29-.17,.46-.51,.52,.13,.08,.23,.17,.29,.26,.06,.08,.16,.29,.29,.61h-.28c-.17-.37-.3-.6-.4-.69-.09-.09-.25-.15-.46-.15h-.11v.84h-.23v-1.89Zm.23,.87h.31c.21,0,.38-.03,.46-.08,.09-.05,.13-.15,.13-.27s-.04-.22-.12-.25c-.08-.06-.22-.08-.43-.08h-.35v.69Z"/><path class="cls-2" d="M250.09,71.24h0c-5.98-3.2-10.14-10.45-10.08-18.36,.02-2.49,.28-4.99,1.5-7.22,0,0,3.91,2.01,8.59,2.01s8.58-2.01,8.58-2.01c1.23,2.23,1.49,4.73,1.5,7.22,.06,7.9-4.11,15.15-10.08,18.36"/><path class="cls-1" d="M259.39,44.9s-4.19,2.16-9.22,2.16-9.22-2.16-9.22-2.16c-1.31,2.41-1.6,5.08-1.62,7.76-.07,8.51,4.42,16.3,10.84,19.74,6.42-3.45,10.9-11.24,10.84-19.74-.02-2.68-.3-5.35-1.61-7.76m-9.22,25.6c-5.65-2.81-11.62-14.65-8.31-23.14,0,0,3.6,1.4,8.31,1.4s8.31-1.4,8.31-1.4c3.31,8.49-2.67,20.33-8.31,23.14"/><path class="cls-1" d="M250.16,49.86c-4.08,0-7.49-1.08-7.49-1.08-2.46,8.34,2.78,17.47,7.49,20.52,4.71-3.05,9.95-12.19,7.48-20.52,0,0-3.4,1.08-7.48,1.08m-.55,17.38c-.17,.14,.23,.74-.24,.68-.34-.03-.26-.87-.19-1.26,.13-.29,.34-.52,.62-.68l.02,.93c-.03,.17-.07,.23-.21,.33m1.36-1.79c-.04,1.41-.08,2.51-.08,2.58,0,.19-.09,.45-.39,.45-.34,0-.39-.3-.39-.3,0,0-.06-1.52-.1-3.26,0,0-.02-.15,.1-.13,.22,.08,.65,.27,.76,.38,.12,.11,.09,.29,.09,.29m1.2,.03c-.1,.44-.58,.72-.98,.81l.02-.86c.02-.16,.2-.42-.38-.65-.8-.46-2.16-.54-2.3-1.74-.06-.47,.14-.92,.57-1.1,.25-.11,.38-.13,.58-.21l.04,.96c0,.12-.11,.3,0,.38,.36,.18,1.57,.59,2.26,1.36,.21,.29,.26,.68,.19,1.06m-1.15-2.27s0,.16-.14,.09c0,0-.66-.29-.75-.33-.17-.07-.13-.12-.14-.22v-1.6s.57,.08,.95,.1c.08,0,.09,.06,.09,.06-.02,.68,0,1.24-.01,1.91m1.86-1.86c-.11,1.37-1.59,1.38-1.59,1.38l.04-1.29c0-.17,.05-.31,.05-.31,0,0,.04-.25-.96-.29-1.34-.05-2.4-.54-2.4-1.64s.86-1.44,.86-1.44c0,0,.51,1.2,.54,1.29,.03,.09-.07,.17,.01,.31,.08,.13,.74,.18,1.33,.24,.6,.05,2.23,.39,2.12,1.75m-3.3-4.63c.75-.03,1.52,.12,1.52,.12,0,0,.1,.9,.03,2.31-.01,.12-.1,.12-.1,.12l-1.23-.08s-.56-1.58-.7-1.88c-.07-.18,.48-.59,.48-.59m1.82,2.19l.05-1.48s.34-.26,.34-.51c0-.27-.16-.62-1.86-.62-3.2,0-4.05-2.01-4.05-2.99s.7-2.25,2.32-2.25,2.21,1.16,2.21,1.16c0,0-.24,.1-.5,.11-.26,.02-.67-.04-.86-.04s-.44,.08-.44,.08c0,0,.24,.26,.59,.34,.35,.1,.59,.35,.59,.35,0,0-.14,.13-.57,.14-.43,.02-1.1-.33-1.43-.33s-.38,.22-.38,.47c0,1.07,2.28,1.26,2.79,1.32,.51,.05,3.26,.15,3.26,2.22s-2.07,2.04-2.07,2.04m2.22-6.73c-.65,.75-1.6,1.45-2.18,2.28l-.09-.03-1.83-.2-.04-.73c.29-.08,.44-.15,.66-.42,.03-.08-.12-.2-.19-.27,.46-.04,.78,.27,1.18,.27,.06-.04,.03-.1,.03-.16-.29-.35-.78-.23-1.18-.35,.21-.08,.5-.05,.71-.23,.1-.08,.07-.16-.04-.29-.21-.34-.6-.81-1.05-1.02l-.05-.57c0-.26,.15-.28,.31-.2l1.32,.54c.29,.08,.09,1.04,.28,1.49,.75-.18,1.24-1.35,2.02-.76,.14,.17,.27,.43,.12,.64"/><path class="cls-1" d="M248.71,51.7c.04,.14-.21,.22-.36,.27-.26,.04-.28-.35-.52-.35,.12-.14,.56-.06,.82,.03l.07,.05Z"/></g><g><path class="cls-3" d="M45,71.76v-25.71h5.44c5.41,0,7.88,2.65,7.88,6.27,0,2.26-1.07,4.19-3.29,5.41,3.58,1.22,5.41,3.44,5.41,6.66,0,3.83-2.97,7.38-8.38,7.38h-7.06Zm2.58-14.93h1.72c1.93,0,3.44-.25,4.51-.97,1.15-.75,1.83-2.11,1.83-3.55,0-2.29-1.72-3.76-4.69-3.76h-3.37v8.27Zm0,12.43h3.12c1.11,0,2.22-.18,3.08-.25,1.72-.14,3.98-2.01,3.98-4.58,0-1.68-.93-3.26-2.51-4.12-1.5-.82-3.51-.97-5.91-.97h-1.76v9.92Z"/><path class="cls-3" d="M64.56,45.4h2.44v26.36h-2.44v-26.36Z"/><path class="cls-3" d="M86.51,52.74h2.58v9.85c0,6.41-2.9,9.63-8.34,9.63s-8.38-3.22-8.38-9.63v-9.85h2.58v9.28c0,2.01,0,3.65,.54,4.8,.9,1.93,2.87,3.04,5.26,3.04,1.76,0,3.29-.64,4.3-1.68,1.5-1.61,1.47-3.44,1.47-6.16v-9.28Z"/><path class="cls-3" d="M95.96,62.45c.11,4.37,3.08,7.56,7.16,7.56s5.87-2.26,7.27-4.55l2.04,1.07c-1.93,3.8-4.91,5.69-9.06,5.69-6.3,0-9.92-4.83-9.92-9.92s3.83-10.06,9.78-10.06c5.41,0,9.78,3.9,9.85,10.21h-17.12Zm14.43-2.15c-1-3.94-3.83-5.69-7.13-5.69s-5.94,1.83-7.06,5.69h14.18Z"/><path class="cls-3" d="M138.47,51.2c-1.4-1.83-2.61-3.15-4.73-3.15-2.22,0-3.47,1.58-3.47,3.26,0,1.4,.82,2.86,2.29,3.98,4.83,3.58,8.38,6.05,8.38,10.21,0,3.62-3.04,6.91-7.23,6.91-3.55,0-5.87-1.97-7.77-5.44l2.18-1.33c1.54,2.83,3.4,4.26,5.37,4.26,2.69,0,4.76-1.97,4.76-4.37,0-2.83-2.65-4.44-8.49-9.17-1.22-.97-2.18-3.01-2.18-4.94,0-3.55,2.76-6.02,6.23-6.02,3.15,0,5.05,1.9,6.73,4.19l-2.08,1.61Z"/><path class="cls-3" d="M144.89,45.4h2.44v10.74c1.97-2.58,4.3-3.9,7.13-3.9,4.12,0,7.02,2.9,7.02,8.6v10.92h-2.44v-10.35c0-4.48-1.36-6.95-5.05-6.95-2.04,0-3.72,.9-5.01,2.58-1.4,1.83-1.65,3.69-1.65,6.73v7.99h-2.44v-26.36Z"/><path class="cls-3" d="M170.17,46.9c0,1.11-.93,2.04-2.04,2.04s-2.01-.93-2.01-2.04,.93-2.01,2.01-2.01,2.04,.9,2.04,2.01Zm-3.22,5.84h2.44v19.02h-2.44v-19.02Z"/><path class="cls-3" d="M176.69,62.45c.11,4.37,3.08,7.56,7.16,7.56s5.87-2.26,7.27-4.55l2.04,1.07c-1.93,3.8-4.91,5.69-9.06,5.69-6.3,0-9.92-4.83-9.92-9.92s3.83-10.06,9.78-10.06c5.41,0,9.78,3.9,9.85,10.21h-17.12Zm14.43-2.15c-1-3.94-3.83-5.69-7.13-5.69s-5.95,1.83-7.06,5.69h14.18Z"/><path class="cls-3" d="M198.53,45.4h2.44v26.36h-2.44v-26.36Z"/><path class="cls-3" d="M223.1,68.5c-2.08,2.51-4.69,3.72-7.66,3.72-5.55,0-9.74-4.62-9.74-10.03s4.3-9.96,9.81-9.96c3.08,0,5.69,1.33,7.59,3.98v-10.81h2.44v26.36h-2.44v-3.26Zm-14.9-6.23c0,4.12,3.22,7.74,7.48,7.74,3.9,0,7.56-2.94,7.56-7.66,0-4.4-3.26-7.73-7.52-7.73s-7.52,3.58-7.52,7.66Z"/></g><g><path class="cls-3" d="M53.43,89.29c-.83-1.09-2-1.62-3.35-1.62-2.23,0-4.1,1.65-4.1,4.05s1.78,4.03,4.15,4.03c1.31,0,2.42-.54,3.3-1.56l.75,.56c-.97,1.22-2.39,1.86-4.11,1.86-3.14,0-5.07-2.21-5.07-4.98s2.15-4.88,5.07-4.88c1.73,0,3.18,.68,4.11,1.98l-.75,.56Z"/><path class="cls-3" d="M61.56,89.44h.88v6.95h-.88v-1.19c-.76,.92-1.72,1.36-2.8,1.36-2.03,0-3.56-1.69-3.56-3.67s1.57-3.64,3.59-3.64c1.13,0,2.08,.48,2.78,1.45v-1.27Zm-5.45,3.48c0,1.51,1.18,2.83,2.74,2.83,1.43,0,2.78-1.07,2.78-2.8,0-1.61-1.21-2.83-2.76-2.83s-2.75,1.31-2.75,2.8Z"/><path class="cls-3" d="M64.53,86.75h.89v9.64h-.89v-9.64Z"/><path class="cls-3" d="M68.74,87.3c0,.41-.34,.75-.75,.75s-.73-.34-.73-.75,.34-.73,.73-.73,.75,.33,.75,.73Zm-1.18,2.13h.89v6.95h-.89v-6.95Z"/><path class="cls-3" d="M70.68,88.35c0-1.13,.28-1.79,1.41-1.79,.38,0,.73,.1,1.02,.2v.88c-.21-.09-.48-.21-.84-.21-.73,0-.71,.45-.71,1.07v.94h1.47v.79h-1.47v6.17h-.89v-6.17h-.92v-.79h.92v-1.09Z"/><path class="cls-3" d="M80.88,92.93c0,1.98-1.53,3.64-3.63,3.64s-3.63-1.66-3.63-3.64,1.55-3.68,3.63-3.68,3.63,1.69,3.63,3.68Zm-6.34,.01c0,1.52,1.14,2.76,2.71,2.76s2.71-1.24,2.71-2.76-1.23-2.83-2.71-2.83-2.71,1.28-2.71,2.83Z"/><path class="cls-3" d="M83.55,90.45c.52-.76,1.09-1.19,1.79-1.19,.41,0,.62,.13,.8,.24l-.47,.76c-.1-.05-.28-.13-.47-.13-.65,0-1.24,.56-1.51,1.52-.12,.45-.14,1.17-.14,2.11v2.64h-.94v-6.95h.94v1.01Z"/><path class="cls-3" d="M87.95,90.68c.72-.94,1.59-1.43,2.61-1.43,1.52,0,2.58,1.05,2.58,3.23v3.9h-.89v-3.78c0-1.64-.51-2.54-1.86-2.54-.75,0-1.36,.33-1.83,.94-.52,.68-.6,1.36-.6,2.46v2.92h-.89v-6.95h.89v1.24Z"/><path class="cls-3" d="M96.33,87.3c0,.41-.34,.75-.75,.75s-.73-.34-.73-.75,.34-.73,.73-.73,.75,.33,.75,.73Zm-1.18,2.13h.89v6.95h-.89v-6.95Z"/><path class="cls-3" d="M104.16,89.44h.88v6.95h-.88v-1.19c-.76,.92-1.71,1.36-2.8,1.36-2.03,0-3.56-1.69-3.56-3.67s1.57-3.64,3.59-3.64c1.13,0,2.08,.48,2.77,1.45v-1.27Zm-5.45,3.48c0,1.51,1.18,2.83,2.74,2.83,1.43,0,2.78-1.07,2.78-2.8,0-1.61-1.21-2.83-2.76-2.83s-2.75,1.31-2.75,2.8Z"/><path class="cls-3" d="M116.76,89.44h.88v6.95h-.88v-1.19c-.76,.92-1.71,1.36-2.8,1.36-2.03,0-3.56-1.69-3.56-3.67s1.57-3.64,3.59-3.64c1.13,0,2.08,.48,2.77,1.45v-1.27Zm-5.45,3.48c0,1.51,1.18,2.83,2.74,2.83,1.43,0,2.78-1.07,2.78-2.8,0-1.61-1.21-2.83-2.76-2.83s-2.75,1.31-2.75,2.8Z"/><path class="cls-3" d="M120.63,90.68c.72-.94,1.59-1.43,2.61-1.43,1.52,0,2.58,1.05,2.58,3.23v3.9h-.89v-3.78c0-1.64-.51-2.54-1.86-2.54-.75,0-1.36,.33-1.83,.94-.52,.68-.6,1.36-.6,2.46v2.92h-.89v-6.95h.89v1.24Z"/><path class="cls-3" d="M133.78,95.2c-.76,.92-1.71,1.36-2.8,1.36-2.03,0-3.56-1.69-3.56-3.67s1.57-3.64,3.59-3.64c1.13,0,2.08,.48,2.77,1.45v-3.95h.89v9.64h-.89v-1.19Zm-5.45-2.28c0,1.51,1.18,2.83,2.74,2.83,1.43,0,2.76-1.07,2.76-2.8,0-1.61-1.19-2.83-2.75-2.83s-2.75,1.31-2.75,2.8Z"/><path class="cls-3" d="M140.46,96.39v-9.4h.2l6.23,7.2v-7.2h.94v9.4h-.21l-6.22-7.11v7.11h-.94Z"/><path class="cls-3" d="M155.99,89.44h.88v6.95h-.88v-1.19c-.76,.92-1.72,1.36-2.8,1.36-2.03,0-3.56-1.69-3.56-3.67s1.57-3.64,3.59-3.64c1.13,0,2.08,.48,2.78,1.45v-1.27Zm-5.45,3.48c0,1.51,1.18,2.83,2.74,2.83,1.43,0,2.77-1.07,2.77-2.8,0-1.61-1.2-2.83-2.76-2.83s-2.75,1.31-2.75,2.8Z"/><path class="cls-3" d="M159.32,86.85h.89v2.59h1.43v.79h-1.43v6.17h-.89v-6.17h-1.23v-.79h1.23v-2.59Z"/><path class="cls-3" d="M163.99,87.3c0,.41-.34,.75-.75,.75s-.73-.34-.73-.75,.34-.73,.73-.73,.75,.33,.75,.73Zm-1.18,2.13h.89v6.95h-.89v-6.95Z"/><path class="cls-3" d="M172.71,92.93c0,1.98-1.53,3.64-3.63,3.64s-3.63-1.66-3.63-3.64,1.55-3.68,3.63-3.68,3.63,1.69,3.63,3.68Zm-6.34,.01c0,1.52,1.14,2.76,2.71,2.76s2.71-1.24,2.71-2.76-1.23-2.83-2.71-2.83-2.71,1.28-2.71,2.83Z"/><path class="cls-3" d="M175.33,90.68c.72-.94,1.58-1.43,2.6-1.43,1.52,0,2.58,1.05,2.58,3.23v3.9h-.89v-3.78c0-1.64-.51-2.54-1.86-2.54-.75,0-1.36,.33-1.83,.94-.52,.68-.6,1.36-.6,2.46v2.92h-.89v-6.95h.89v1.24Z"/><path class="cls-3" d="M188.48,89.44h.88v6.95h-.88v-1.19c-.76,.92-1.72,1.36-2.8,1.36-2.03,0-3.56-1.69-3.56-3.67s1.57-3.64,3.59-3.64c1.13,0,2.08,.48,2.78,1.45v-1.27Zm-5.45,3.48c0,1.51,1.18,2.83,2.74,2.83,1.43,0,2.77-1.07,2.77-2.8,0-1.61-1.2-2.83-2.76-2.83s-2.75,1.31-2.75,2.8Z"/><path class="cls-3" d="M191.46,86.75h.89v9.64h-.89v-9.64Z"/><path class="cls-3" d="M206.18,89.29c-.83-1.09-2-1.62-3.35-1.62-2.23,0-4.1,1.65-4.1,4.05s1.78,4.03,4.15,4.03c1.31,0,2.42-.54,3.3-1.56l.75,.56c-.97,1.22-2.4,1.86-4.11,1.86-3.14,0-5.07-2.21-5.07-4.98s2.15-4.88,5.07-4.88c1.73,0,3.18,.68,4.11,1.98l-.75,.56Z"/><path class="cls-3" d="M215.19,92.93c0,1.98-1.53,3.64-3.63,3.64s-3.63-1.66-3.63-3.64,1.55-3.68,3.63-3.68,3.63,1.69,3.63,3.68Zm-6.34,.01c0,1.52,1.14,2.76,2.71,2.76s2.71-1.24,2.71-2.76-1.23-2.83-2.71-2.83-2.71,1.28-2.71,2.83Z"/><path class="cls-3" d="M215.87,89.44h.96l2.33,5.05,2.3-5.05h.96l-3.18,6.95h-.16l-3.21-6.95Z"/><path class="cls-3" d="M223.98,92.99c.04,1.6,1.13,2.76,2.62,2.76s2.15-.82,2.66-1.66l.75,.39c-.71,1.39-1.79,2.08-3.31,2.08-2.3,0-3.63-1.77-3.63-3.63s1.4-3.68,3.57-3.68c1.98,0,3.57,1.43,3.6,3.73h-6.26Zm5.28-.79c-.37-1.44-1.4-2.08-2.61-2.08s-2.17,.67-2.58,2.08h5.18Z"/><path class="cls-3" d="M232.92,90.45c.52-.76,1.09-1.19,1.79-1.19,.41,0,.62,.13,.8,.24l-.47,.76c-.1-.05-.28-.13-.47-.13-.65,0-1.24,.56-1.51,1.52-.12,.45-.14,1.17-.14,2.11v2.64h-.94v-6.95h.94v1.01Z"/><path class="cls-3" d="M242.23,89.44h.88v6.95h-.88v-1.19c-.76,.92-1.72,1.36-2.8,1.36-2.03,0-3.56-1.69-3.56-3.67s1.57-3.64,3.59-3.64c1.13,0,2.08,.48,2.78,1.45v-1.27Zm-5.45,3.48c0,1.51,1.18,2.83,2.74,2.83,1.43,0,2.77-1.07,2.77-2.8,0-1.61-1.2-2.83-2.76-2.83s-2.75,1.31-2.75,2.8Z"/><path class="cls-3" d="M252.09,94.98c0,1.14-.07,2.08-.63,2.85-.59,.8-1.62,1.27-2.95,1.27-2,0-2.97-.81-3.59-2.16h.97c.52,.92,1.34,1.35,2.57,1.35,1.15,0,2-.42,2.42-1.18,.26-.48,.3-.98,.3-1.52v-.52c-.69,.88-1.7,1.32-2.79,1.32-1.93,0-3.56-1.47-3.56-3.52s1.72-3.61,3.56-3.61c1.23,0,2.06,.52,2.79,1.39v-1.2h.9v5.54Zm-6.34-2.06c0,1.39,.98,2.61,2.81,2.61,1.52,0,2.66-1.05,2.66-2.67s-1.24-2.74-2.68-2.74c-1.56,0-2.79,1.19-2.79,2.8Z"/><path class="cls-3" d="M254.74,92.99c.04,1.6,1.13,2.76,2.62,2.76s2.15-.82,2.66-1.66l.75,.39c-.71,1.39-1.79,2.08-3.31,2.08-2.3,0-3.63-1.77-3.63-3.63s1.4-3.68,3.57-3.68c1.98,0,3.57,1.43,3.6,3.73h-6.26Zm5.28-.79c-.37-1.44-1.4-2.08-2.61-2.08s-2.17,.67-2.58,2.08h5.18Z"/></g></svg>