<svg width="32" height="32" viewBox="0 0 32 32" fill="none" xmlns="http://www.w3.org/2000/svg">
<path d="M28.77 21.6C28.1101 20.9028 27.3944 20.2607 26.63 19.68C25.46 18.77 23.28 17.23 21.96 17.23C20.64 17.23 19.72 18.59 18.91 19.9C18.64 20.33 18.36 20.79 18.12 21.09C15.0465 19.4547 12.5296 16.9412 10.89 13.87C11.2729 13.5816 11.6737 13.3177 12.09 13.08C13.4 12.27 14.75 11.44 14.75 10.03C14.75 8.62 13.21 6.53 12.3 5.35C11.7167 4.58779 11.0747 3.87228 10.38 3.21C9.76857 2.51977 8.91796 2.08732 8 2C6.46 2 4.62 3.62 4.27 4C3.42 4.73 2 6.3 2 8.05C2.06147 10.7634 2.76757 13.4233 4.06 15.81C5.39746 18.3973 7.13179 20.7593 9.2 22.81C11.2518 24.877 13.6135 26.6111 16.2 27.95C18.568 29.2248 21.2017 29.9269 23.89 30H24C25.75 30 27.32 28.57 28.1 27.72C28.51 27.22 30 25.48 30 24C29.9175 23.0706 29.4763 22.2098 28.77 21.6ZM27 26.7C26.62 27.11 25.29 28.46 24 28.49C21.5213 28.424 19.0927 27.7766 16.91 26.6C14.4719 25.327 12.2455 23.6842 10.31 21.73C8.35811 19.7925 6.7156 17.5665 5.44 15.13C4.24819 12.9543 3.5837 10.5293 3.5 8.05C3.5 6.8 4.87 5.44 5.28 5.05C6.01649 4.28164 6.96221 3.7462 8 3.51C8.19 3.51 8.59 3.65 9.33 4.33C9.96163 4.95281 10.5465 5.62128 11.08 6.33C12.31 7.92 13.21 9.5 13.21 10.08C13.21 10.66 12.21 11.25 11.27 11.84C10.8012 12.1108 10.3503 12.4114 9.92 12.74C9.60788 12.948 9.36432 13.2438 9.22 13.59L9.14 13.84L9.25 14.09C11.0407 17.8908 14.0992 20.9493 17.9 22.74L18.15 22.84L18.4 22.76C18.7424 22.6191 19.0374 22.3831 19.25 22.08C19.5729 21.6457 19.8733 21.1951 20.15 20.73C20.74 19.73 21.34 18.73 21.92 18.73C23.3119 19.1663 24.5941 19.896 25.68 20.87C26.3962 21.3942 27.0654 21.9798 27.68 22.62C28.4 23.39 28.51 23.78 28.51 23.94C28.2889 24.9884 27.7637 25.9484 27 26.7Z" fill="#C0386D"/>
</svg>
