<?xml version="1.0" encoding="UTF-8"?>
<svg version="1.1" xmlns="http://www.w3.org/2000/svg" width="48" height="48">
<path d="M0 0 C4.56367713 0.76061286 6.11725142 2.80251222 8.9609375 6.31640625 C10.96999015 9.50758103 11.29712108 11.82431205 11.375 15.5625 C10.055 16.5525 8.735 17.5425 7.375 18.5625 C7.84856123 22.82455106 10.22198192 24.84943793 13.375 27.5625 C15.54846568 28.42369134 15.54846568 28.42369134 17.375 28.5625 C18.365 27.2425 19.355 25.9225 20.375 24.5625 C26.34042499 24.68677969 29.50485894 26.5588612 33.82421875 30.66015625 C35.375 32.5625 35.375 32.5625 36.125 35.6875 C35.22024638 39.15572221 33.85989599 41.00451884 31.375 43.5625 C26.67212116 45.91393942 21.24491926 45.18335246 16.3984375 43.57421875 C5.34490234 38.50444487 -2.60869972 30.62315618 -7.62109375 19.52734375 C-9.1186239 15.10467689 -9.78139288 11.13779356 -8.625 6.5625 C-6.1875 3.5 -6.1875 3.5 -3.625 1.5625 C-2.625 0.5625 -2.625 0.5625 0 0 Z M-4.5 6 C-6.0309696 8.01294151 -6.61469735 9.10403229 -6.671875 11.6484375 C-4.5032998 23.0936955 2.8479909 31.94156644 12.25 38.4375 C16.65027659 40.96679284 21.24987619 42.67372973 26.375 42.5625 C29.18335509 41.26328118 30.28240856 39.97702859 32.375 37.5625 C32.705 36.5725 33.035 35.5825 33.375 34.5625 C32.13625579 33.383889 30.8835199 32.21997085 29.625 31.0625 C28.92890625 30.4128125 28.2328125 29.763125 27.515625 29.09375 C25.27143187 27.17463357 25.27143187 27.17463357 21.375 27.5625 C19.58530974 29.98922567 19.58530974 29.98922567 18.375 32.5625 C13.054323 32.24003473 9.94243071 29.21801542 6.375 25.5625 C4.17375182 22.50915575 3.375 21.32846445 3.375 17.5625 C5.875 15.875 5.875 15.875 8.375 14.5625 C7.92876936 9.5052194 5.86857358 7.05607358 2.375 3.5625 C-1.74469895 3.1313765 -1.74469895 3.1313765 -4.5 6 Z " fill="#C0386D" transform="translate(10.625,1.4375)"/>
</svg>
