<svg width="48" height="48" viewBox="0 0 48 48" fill="none" xmlns="http://www.w3.org/2000/svg">
<path d="M41.52 22.9916L7.52 2.13402C7.36798 2.04622 7.19554 2 7.02 2C6.84446 2 6.67202 2.04622 6.52 2.13402C6.36658 2.21791 6.23783 2.34057 6.14659 2.48977C6.05535 2.63897 6.0048 2.80949 6 2.98433V44.9996C6.00031 45.1769 6.04769 45.3509 6.1373 45.5038C6.22691 45.6567 6.35553 45.7831 6.51 45.8699C6.65946 45.9547 6.82821 45.9995 7 46C7.18723 46.0006 7.37086 45.9486 7.53 45.8499L41.53 24.7122C41.6741 24.6221 41.7929 24.4968 41.8751 24.348C41.9574 24.1992 42.0003 24.0319 42 23.8619C42.0027 23.6876 41.9599 23.5156 41.8757 23.3629C41.7915 23.2103 41.6689 23.0823 41.52 22.9916ZM8 43.199V4.77499L39.1 23.8619L8 43.199Z" fill="#C0386D"/>
</svg>
