<svg width="48" height="48" viewBox="0 0 48 48" fill="none" xmlns="http://www.w3.org/2000/svg">
<path d="M31.2895 36.06L38.7227 27.71C38.81 27.6115 38.877 27.4968 38.9199 27.3724C38.9629 27.248 38.9809 27.1163 38.9731 26.9849C38.9652 26.8535 38.9315 26.7249 38.874 26.6066C38.8165 26.4882 38.7362 26.3823 38.6378 26.295C38.5394 26.2077 38.4248 26.1406 38.3005 26.0976C38.1762 26.0546 38.0446 26.0366 37.9134 26.0444C37.7821 26.0523 37.6537 26.086 37.5354 26.1436C37.4171 26.2012 37.3113 26.2815 37.2241 26.38L29.9807 34.58L20.2597 24H23.9862C28.9817 24 32.978 18 32.978 13C32.978 8 28.9817 2 23.9862 2H9.99908C9.73411 2 9.47999 2.10536 9.29262 2.29289C9.10526 2.48043 9 2.73478 9 3V34.92C9 35.1852 9.10526 35.4396 9.29262 35.6271C9.47999 35.8146 9.73411 35.92 9.99908 35.92C10.2641 35.92 10.5182 35.8146 10.7055 35.6271C10.8929 35.4396 10.9982 35.1852 10.9982 34.92V24H17.5522L28.592 36.08L21.2488 44.33C21.1602 44.4281 21.0919 44.5429 21.0479 44.6677C21.0039 44.7924 20.9851 44.9246 20.9925 45.0567C21 45.1888 21.0335 45.3181 21.0912 45.4371C21.1489 45.5561 21.2296 45.6624 21.3287 45.75C21.5108 45.9108 21.7452 45.9996 21.9881 46C22.1292 46.0011 22.2689 45.9722 22.3981 45.9153C22.5272 45.8585 22.6429 45.7748 22.7374 45.67L29.9807 37.56L37.2641 45.56C37.3575 45.6636 37.4715 45.7465 37.5988 45.8033C37.7262 45.8601 37.864 45.8897 38.0034 45.89C38.251 45.8894 38.4895 45.7967 38.6728 45.63C38.8684 45.4521 38.9857 45.2037 38.9988 44.9395C39.0119 44.6752 38.9198 44.4165 38.7427 44.22L31.2895 36.06ZM10.9982 4H23.9862C27.6928 4 30.9798 9 30.9798 13C30.9798 17 27.6928 22 23.9862 22H10.9982V4Z" fill="#C0386D"/>
</svg>
