<svg width="32" height="32" viewBox="0 0 32 32" fill="none" xmlns="http://www.w3.org/2000/svg">
<rect x="1" y="1" width="30" height="30" rx="15" stroke="#162C55" stroke-width="2"/>
<path d="M16.0039 19.5597C17.1198 19.5204 18.2301 19.7355 19.251 20.1876C20.2718 20.6397 21.177 21.3174 21.8975 22.17C21.9746 22.2751 22.0121 22.4043 22.0029 22.5343C21.9938 22.6643 21.9379 22.7867 21.8467 22.88C21.7655 22.9565 21.6585 22.9996 21.5469 23.0001C21.4796 22.999 21.413 22.9835 21.3525 22.9542C21.2921 22.9248 21.2386 22.8823 21.1963 22.8302C20.5592 22.0836 19.7608 21.4909 18.8613 21.0977C17.9619 20.7046 16.9848 20.5204 16.0039 20.5597C15.0228 20.547 14.0503 20.7447 13.1514 21.1378C12.2525 21.5309 11.4475 22.1111 10.791 22.8399C10.7507 22.8864 10.7005 22.9237 10.6445 22.9493C10.5885 22.9749 10.5274 22.9883 10.4658 22.9884C10.4042 22.9884 10.3432 22.9749 10.2871 22.9493C10.231 22.9237 10.181 22.8865 10.1406 22.8399C10.0528 22.7426 10.004 22.6165 10.0039 22.4854C10.0039 22.3543 10.0527 22.2273 10.1406 22.13C10.8825 21.3142 11.7878 20.6636 12.7979 20.2208C13.8081 19.778 14.9008 19.5525 16.0039 19.5597ZM14.2803 9.34286C15.103 9.00231 16.0085 8.91337 16.8818 9.087C17.7551 9.26069 18.5569 9.68921 19.1865 10.3184C19.8162 10.9478 20.2452 11.7493 20.4189 12.6222C20.5926 13.4949 20.5037 14.3996 20.1631 15.2218C19.8224 16.0439 19.2451 16.7468 18.5049 17.2413C17.7644 17.7358 16.8935 18.0001 16.0029 18.0001C14.8096 17.9974 13.6661 17.5221 12.8223 16.6788C11.9785 15.8355 11.5036 14.6927 11.501 13.5001C11.501 12.6101 11.765 11.7401 12.2598 11.0001C12.7545 10.2601 13.4576 9.68342 14.2803 9.34286ZM16.0029 10.0001C15.0742 10.0001 14.1831 10.3691 13.5264 11.0255C12.8698 11.6818 12.501 12.572 12.501 13.5001C12.501 14.1922 12.7061 14.8689 13.0908 15.4444C13.4756 16.02 14.0232 16.4686 14.6631 16.7335C15.303 16.9984 16.0072 17.0677 16.6865 16.9327C17.3657 16.7976 17.9898 16.4641 18.4795 15.9747C18.9691 15.4852 19.3024 14.8615 19.4375 14.1827C19.5726 13.5038 19.5033 12.7997 19.2383 12.1602C18.9732 11.5209 18.524 10.9744 17.9482 10.5899C17.3724 10.2055 16.6954 10.0001 16.0029 10.0001Z" fill="#162C55"/>
<path d="M16.0039 19.5597L16.0007 20.0596L16.0111 20.0597L16.0215 20.0593L16.0039 19.5597ZM19.251 20.1876L19.4535 19.7304L19.4534 19.7304L19.251 20.1876ZM21.8975 22.17L22.3005 21.874L22.2904 21.8603L22.2794 21.8473L21.8975 22.17ZM22.0029 22.5343L22.5017 22.5694L22.5017 22.5694L22.0029 22.5343ZM21.8467 22.88L22.1896 23.2439L22.197 23.2369L22.2041 23.2296L21.8467 22.88ZM21.5469 23.0001L21.5391 23.5001L21.5491 23.5001L21.5469 23.0001ZM21.3525 22.9542L21.1339 23.4039L21.1342 23.404L21.3525 22.9542ZM21.1963 22.8302L21.5845 22.5148L21.5766 22.5056L21.1963 22.8302ZM18.8613 21.0977L19.0616 20.6396L19.0616 20.6396L18.8613 21.0977ZM16.0039 20.5597L15.9975 21.0596L16.0107 21.0598L16.0239 21.0593L16.0039 20.5597ZM13.1514 21.1378L12.951 20.6797L12.951 20.6797L13.1514 21.1378ZM10.791 22.8399L10.4194 22.5052L10.4132 22.5124L10.791 22.8399ZM10.6445 22.9493L10.8522 23.4042L10.8525 23.404L10.6445 22.9493ZM10.4658 22.9884V23.4884H10.466L10.4658 22.9884ZM10.2871 22.9493L10.0795 23.4042L10.0795 23.4042L10.2871 22.9493ZM10.1406 22.8399L10.5185 22.5124L10.5118 22.5049L10.1406 22.8399ZM10.0039 22.4854H9.50391L9.50391 22.4858L10.0039 22.4854ZM10.1406 22.13L9.77072 21.7936L9.76945 21.795L10.1406 22.13ZM12.7979 20.2208L12.5971 19.7628L12.5971 19.7629L12.7979 20.2208ZM14.2803 9.34286L14.089 8.88087L14.089 8.88088L14.2803 9.34286ZM16.8818 9.087L16.9794 8.5966L16.9793 8.59659L16.8818 9.087ZM19.1865 10.3184L19.54 9.96479V9.96479L19.1865 10.3184ZM20.4189 12.6222L20.9093 12.5246L20.9093 12.5245L20.4189 12.6222ZM20.1631 15.2218L20.625 15.4132L20.625 15.4132L20.1631 15.2218ZM18.5049 17.2413L18.7826 17.6571L18.7826 17.6571L18.5049 17.2413ZM16.0029 18.0001L16.0018 18.5001H16.0029V18.0001ZM12.8223 16.6788L12.4688 17.0324L12.4688 17.0324L12.8223 16.6788ZM11.501 13.5001H11.001L11.001 13.5012L11.501 13.5001ZM12.2598 11.0001L11.8441 10.7222L11.8441 10.7222L12.2598 11.0001ZM16.0029 10.0001V9.50008H16.0029L16.0029 10.0001ZM13.5264 11.0255L13.1729 10.6718L13.1729 10.6719L13.5264 11.0255ZM12.501 13.5001H12.001H12.501ZM13.0908 15.4444L12.6751 15.7223L12.6752 15.7223L13.0908 15.4444ZM14.6631 16.7335L14.4718 17.1955L14.4719 17.1955L14.6631 16.7335ZM16.6865 16.9327L16.784 17.4231L16.7841 17.4231L16.6865 16.9327ZM18.4795 15.9747L18.8329 16.3283L18.833 16.3283L18.4795 15.9747ZM19.4375 14.1827L19.9279 14.2803L19.9279 14.2803L19.4375 14.1827ZM19.2383 12.1602L19.7002 11.9688L19.7002 11.9687L19.2383 12.1602ZM17.9482 10.5899L18.2259 10.1741L18.2259 10.1741L17.9482 10.5899ZM16.0039 19.5597L16.0215 20.0593C17.0616 20.0227 18.0967 20.2232 19.0485 20.6448L19.251 20.1876L19.4534 19.7304C18.3636 19.2477 17.178 19.018 15.9863 19.06L16.0039 19.5597ZM19.251 20.1876L19.0485 20.6448C20.0003 21.0663 20.844 21.6981 21.5156 22.4927L21.8975 22.17L22.2794 21.8473C21.5099 20.9368 20.5434 20.2131 19.4535 19.7304L19.251 20.1876ZM21.8975 22.17L21.4945 22.466C21.5016 22.4757 21.505 22.4876 21.5042 22.4991L22.0029 22.5343L22.5017 22.5694C22.5192 22.3209 22.4476 22.0744 22.3005 21.874L21.8975 22.17ZM22.0029 22.5343L21.5042 22.4991C21.5035 22.5087 21.4991 22.5203 21.4892 22.5304L21.8467 22.88L22.2041 23.2296C22.3766 23.0532 22.484 22.8199 22.5017 22.5694L22.0029 22.5343ZM21.8467 22.88L21.5038 22.516C21.514 22.5064 21.5285 22.5002 21.5446 22.5001L21.5469 23.0001L21.5491 23.5001C21.7885 23.499 22.0169 23.4065 22.1896 23.2439L21.8467 22.88ZM21.5469 23.0001L21.5547 22.5001C21.5586 22.5002 21.564 22.501 21.5709 22.5044L21.3525 22.9542L21.1342 23.404C21.262 23.466 21.4007 23.4979 21.5391 23.5L21.5469 23.0001ZM21.3525 22.9542L21.5712 22.5045C21.5767 22.5072 21.5809 22.5107 21.5844 22.5149L21.1963 22.8302L20.8082 23.1454C20.8963 23.2539 21.0076 23.3424 21.1339 23.4039L21.3525 22.9542ZM21.1963 22.8302L21.5766 22.5056C20.8905 21.7015 20.0306 21.0632 19.0616 20.6396L18.8613 21.0977L18.6611 21.5559C19.4911 21.9187 20.2279 22.4657 20.816 23.1547L21.1963 22.8302ZM18.8613 21.0977L19.0616 20.6396C18.0929 20.2162 17.0405 20.0178 15.9839 20.0601L16.0039 20.5597L16.0239 21.0593C16.9291 21.023 17.8309 21.193 18.6611 21.5559L18.8613 21.0977ZM16.0039 20.5597L16.0104 20.0597C14.9578 20.0461 13.9149 20.2582 12.951 20.6797L13.1514 21.1378L13.3517 21.5959C14.1857 21.2311 15.0877 21.0479 15.9975 21.0596L16.0039 20.5597ZM13.1514 21.1378L12.951 20.6797C11.9871 21.1013 11.1237 21.7234 10.4195 22.5053L10.791 22.8399L11.1625 23.1745C11.7713 22.4987 12.5178 21.9606 13.3517 21.5959L13.1514 21.1378ZM10.791 22.8399L10.4132 22.5124C10.4207 22.5038 10.4288 22.4982 10.4366 22.4946L10.6445 22.9493L10.8525 23.404C10.9723 23.3492 11.0807 23.2691 11.1688 23.1674L10.791 22.8399ZM10.6445 22.9493L10.4369 22.4945C10.4452 22.4907 10.4548 22.4884 10.4656 22.4884L10.4658 22.9884L10.466 23.4884C10.6001 23.4883 10.7318 23.4591 10.8522 23.4042L10.6445 22.9493ZM10.4658 22.9884V22.4884C10.4769 22.4884 10.4867 22.4908 10.4947 22.4944L10.2871 22.9493L10.0795 23.4042C10.1997 23.459 10.3314 23.4884 10.4658 23.4884V22.9884ZM10.2871 22.9493L10.4947 22.4945C10.5029 22.4982 10.5112 22.5041 10.5184 22.5124L10.1406 22.8399L9.76281 23.1674C9.85084 23.269 9.95915 23.3492 10.0795 23.4042L10.2871 22.9493ZM10.1406 22.8399L10.5118 22.5049C10.5064 22.4989 10.5039 22.4918 10.5039 22.4851L10.0039 22.4854L9.50391 22.4858C9.50407 22.7411 9.59924 22.9863 9.76945 23.1749L10.1406 22.8399ZM10.0039 22.4854H10.5039C10.5039 22.4781 10.5068 22.4705 10.5118 22.465L10.1406 22.13L9.76945 21.795C9.59867 21.9842 9.50391 22.2305 9.50391 22.4854H10.0039ZM10.1406 22.13L10.5105 22.4664C11.2052 21.7025 12.0529 21.0933 12.9986 20.6787L12.7979 20.2208L12.5971 19.7629C11.5227 20.2338 10.5598 20.926 9.77072 21.7936L10.1406 22.13ZM12.7979 20.2208L12.9986 20.6787C13.9446 20.2641 14.9678 20.053 16.0007 20.0596L16.0039 19.5597L16.0071 19.0597C14.8338 19.0521 13.6716 19.2919 12.5971 19.7628L12.7979 20.2208ZM14.2803 9.34286L14.4715 9.80484C15.2028 9.50213 16.0078 9.42303 16.7843 9.5774L16.8818 9.087L16.9793 8.59659C16.0091 8.40371 15.0031 8.5025 14.089 8.88087L14.2803 9.34286ZM16.8818 9.087L16.7843 9.57739C17.5606 9.73179 18.2734 10.1127 18.8331 10.6721L19.1865 10.3184L19.54 9.96479C18.8405 9.26569 17.9496 8.78958 16.9794 8.5966L16.8818 9.087ZM19.1865 10.3184L18.8331 10.6721C19.3929 11.2316 19.7742 11.944 19.9286 12.7198L20.4189 12.6222L20.9093 12.5245C20.7162 11.5545 20.2395 10.6639 19.54 9.96479L19.1865 10.3184ZM20.4189 12.6222L19.9286 12.7198C20.083 13.4956 20.0039 14.2997 19.7012 15.0304L20.1631 15.2218L20.625 15.4132C21.0035 14.4995 21.1023 13.4943 20.9093 12.5246L20.4189 12.6222ZM20.1631 15.2218L19.7012 15.0303C19.3983 15.761 18.8852 16.386 18.2272 16.8255L18.5049 17.2413L18.7826 17.6571C19.605 17.1077 20.2464 16.3267 20.625 15.4132L20.1631 15.2218ZM18.5049 17.2413L18.2272 16.8255C17.5689 17.2651 16.7945 17.5001 16.0029 17.5001V18.0001V18.5001C16.9924 18.5001 17.96 18.2064 18.7826 17.6571L18.5049 17.2413ZM16.0029 18.0001L16.0041 17.5001C14.943 17.4977 13.9261 17.0751 13.1757 16.3251L12.8223 16.6788L12.4688 17.0324C13.406 17.9691 14.6763 18.4971 16.0018 18.5001L16.0029 18.0001ZM12.8223 16.6788L13.1757 16.3252C12.4255 15.5753 12.0033 14.5593 12.001 13.499L11.501 13.5001L11.001 13.5012C11.0039 14.826 11.5315 16.0956 12.4688 17.0324L12.8223 16.6788ZM11.501 13.5001L12.001 13.5001C12.001 12.709 12.2357 11.9358 12.6754 11.278L12.2598 11.0001L11.8441 10.7222C11.2944 11.5444 11.001 12.5111 11.001 13.5001H11.501ZM12.2598 11.0001L12.6754 11.278C13.1152 10.6203 13.7402 10.1076 14.4715 9.80483L14.2803 9.34286L14.089 8.88088C13.175 9.25926 12.3938 9.90002 11.8441 10.7222L12.2598 11.0001ZM16.0029 10.0001L16.0029 9.50008C14.9416 9.50012 13.9234 9.92176 13.1729 10.6718L13.5264 11.0255L13.8798 11.3791C14.4428 10.8165 15.2068 10.5001 16.0029 10.5001L16.0029 10.0001ZM13.5264 11.0255L13.1729 10.6719C12.4225 11.422 12.001 12.4393 12.001 13.5001H12.501L13.001 13.5001C13.001 12.7047 13.3171 11.9417 13.8799 11.3791L13.5264 11.0255ZM12.501 13.5001H12.001C12.001 14.291 12.2355 15.0645 12.6751 15.7223L13.0908 15.4444L13.5065 15.1666C13.1768 14.6734 13.001 14.0933 13.001 13.5001H12.501ZM13.0908 15.4444L12.6752 15.7223C13.1151 16.3803 13.7408 16.8928 14.4718 17.1955L14.6631 16.7335L14.8543 16.2715C14.3056 16.0443 13.8362 15.6597 13.5065 15.1665L13.0908 15.4444ZM14.6631 16.7335L14.4719 17.1955C15.203 17.4981 16.0078 17.5774 16.784 17.4231L16.6865 16.9327L16.589 16.4423C16.0067 16.5581 15.4029 16.4986 14.8543 16.2715L14.6631 16.7335ZM16.6865 16.9327L16.7841 17.4231C17.5602 17.2687 18.2733 16.8876 18.8329 16.3283L18.4795 15.9747L18.126 15.621C17.7062 16.0406 17.1712 16.3265 16.589 16.4423L16.6865 16.9327ZM18.4795 15.9747L18.833 16.3283C19.3926 15.7689 19.7735 15.056 19.9279 14.2803L19.4375 14.1827L18.9471 14.0851C18.8313 14.667 18.5456 15.2016 18.126 15.6211L18.4795 15.9747ZM19.4375 14.1827L19.9279 14.2803C20.0823 13.5044 20.0031 12.6998 19.7002 11.9688L19.2383 12.1602L18.7764 12.3517C19.0035 12.8997 19.0629 13.5032 18.9471 14.0851L19.4375 14.1827ZM19.2383 12.1602L19.7002 11.9687C19.3971 11.2379 18.8838 10.6134 18.2259 10.1741L17.9482 10.5899L17.6706 11.0057C18.1643 11.3354 18.5493 11.8039 18.7764 12.3517L19.2383 12.1602ZM17.9482 10.5899L18.2259 10.1741C17.5679 9.7348 16.7943 9.50008 16.0029 9.50008V10.0001V10.5001C16.5965 10.5001 17.1769 10.6761 17.6706 11.0058L17.9482 10.5899Z" fill="#162C55"/>
</svg>
