<?xml version="1.0" encoding="UTF-8"?>
<svg id="Layer_2" data-name="Layer 2" xmlns="http://www.w3.org/2000/svg" viewBox="0 0 47 48.1">
  <defs>
    <style>
      .cls-1, .cls-2 {
        stroke-linecap: round;
      }

      .cls-1, .cls-2, .cls-3 {
        fill: none;
        stroke: #c0386d;
        stroke-width: 2px;
      }

      .cls-1, .cls-3 {
        stroke-miterlimit: 10;
      }

      .cls-2 {
        stroke-linejoin: round;
      }
    </style>
  </defs>
  <g id="Layer_1-2" data-name="Layer 1">
    <path class="cls-2" d="M19,1h6v17c0,1.6-.5,3.2-1.4,4.6-1.3,2.1-5.6,4.4-10.6,4.4s-9.2-2.3-10.5-4.4c-.9-1.4-1.5-3-1.5-4.6V1h6"/>
    <path class="cls-3" d="M38,17c-4.4,0-8,3.6-8,8s3.6,8,8,8,8-3.6,8-8-3.6-8-8-8h0Z"/>
    <path class="cls-1" d="M38,25v8c0,2,0,14.1-12,14.1s-13-11.5-13-14v-6.1"/>
    <path class="cls-3" d="M37.9,24c.5,0,1,.4,1,1s-.4,1-1,1-1-.4-1-1,.5-1,1-1"/>
  </g>
</svg>