<svg width="48" height="48" viewBox="0 0 48 48" fill="none" xmlns="http://www.w3.org/2000/svg">
<path d="M46 16.6448C45.9347 14.2474 45.207 11.9149 43.8974 9.90546C42.5878 7.896 40.7474 6.288 38.58 5.25948C36.2023 4.12891 33.5308 3.76876 30.9384 4.22932C28.3461 4.68987 25.9623 5.94814 24.12 7.82843C21.727 5.43865 18.502 4.06679 15.12 4C11.6873 4.00699 8.39335 5.35547 5.94187 7.75739C3.49038 10.1593 2.0757 13.4242 2 16.8547C2 21.163 4.77 24.8514 7.52 27.6203C7.24169 28.1222 7.09384 28.6858 7.09 29.2596C7.08644 29.7324 7.1785 30.201 7.36066 30.6373C7.54281 31.0736 7.8113 31.4686 8.15 31.7986C8.84457 32.4856 9.78284 32.8701 10.76 32.8681H10.92C10.92 32.8681 10.92 32.9481 10.92 32.9781C10.9238 33.4501 11.0211 33.9166 11.2065 34.3507C11.3919 34.7848 11.6616 35.1779 12 35.5071C12.6989 36.1938 13.64 36.578 14.62 36.5766H14.77C14.77 36.5766 14.77 36.6466 14.77 36.6866C14.7676 37.1592 14.8602 37.6274 15.0423 38.0636C15.2243 38.4997 15.4922 38.8949 15.83 39.2255C16.1745 39.5678 16.5834 39.8386 17.033 40.0221C17.4827 40.2057 17.9643 40.2985 18.45 40.2951H18.61C18.6044 40.3315 18.6044 40.3686 18.61 40.405C18.6098 40.8773 18.7034 41.3449 18.8854 41.7807C19.0673 42.2166 19.334 42.612 19.67 42.944C20.3679 43.6212 21.3023 44 22.275 44C23.2477 44 24.1821 43.6212 24.88 42.944L26.88 41.0348C27.3726 40.5543 27.7193 39.9445 27.88 39.2755C28.334 39.4462 28.8149 39.5343 29.3 39.5354C30.3077 39.5188 31.272 39.1225 32 38.4259C32.3646 38.0752 32.6544 37.6545 32.8521 37.1889C33.0497 36.7234 33.151 36.2227 33.15 35.717C33.15 35.717 33.15 35.627 33.15 35.587H33.37C34.3492 35.589 35.2914 35.213 36 34.5375C36.3525 34.2002 36.6334 33.7953 36.8259 33.347C37.0183 32.8988 37.1183 32.4163 37.12 31.9285C37.12 31.8786 37.12 31.8386 37.12 31.7986H37.28C38.2677 31.8041 39.2185 31.4239 39.93 30.739C40.4423 30.2595 40.8004 29.6385 40.9589 28.9551C41.1174 28.2716 41.069 27.5565 40.82 26.9006C43.72 23.9918 46.07 21.153 46 16.6448ZM37.72 7.06874C39.5501 7.93668 41.105 9.29291 42.2131 10.9879C43.3212 12.6829 43.9396 14.6509 44 16.6748C44 20.0134 42.58 22.2625 39.64 25.2113L27.53 13.2162C27.3457 13.0476 27.1049 12.9541 26.855 12.9541C26.6051 12.9541 26.3643 13.0476 26.18 13.2162C26.05 13.3262 22.96 15.9751 21.31 17.5744C20.626 18.3345 19.7252 18.8665 18.7292 19.0989C17.7333 19.3313 16.6899 19.2527 15.74 18.8739L24.87 10.0175C27.6 6.87882 32.41 4.52978 37.72 7.06874ZM9.56 30.3792C9.40931 30.2363 9.2893 30.0642 9.2073 29.8735C9.12529 29.6827 9.083 29.4772 9.083 29.2696C9.083 29.062 9.12529 28.8566 9.2073 28.6658C9.2893 28.475 9.40931 28.303 9.56 28.1601L11.56 26.2509C11.8819 25.9435 12.3099 25.772 12.755 25.772C13.2001 25.772 13.6281 25.9435 13.95 26.2509C14.1015 26.3954 14.2222 26.5691 14.3047 26.7615C14.3872 26.9539 14.4298 27.1611 14.43 27.3704C14.4296 27.5782 14.3869 27.7838 14.3043 27.9746C14.2218 28.1654 14.1012 28.3373 13.95 28.4799L12 30.3892C11.8395 30.5493 11.6489 30.6761 11.4391 30.7623C11.2294 30.8485 11.0047 30.8925 10.7779 30.8915C10.5511 30.8906 10.3268 30.8449 10.1178 30.7569C9.90875 30.669 9.71919 30.5406 9.56 30.3792ZM13.38 34.0876C13.2322 33.945 13.1145 33.7742 13.0338 33.5854C12.9531 33.3965 12.911 33.1934 12.91 32.9881C12.9106 32.7818 12.9535 32.5777 13.036 32.3886C13.1186 32.1995 13.2391 32.0293 13.39 31.8885L15.39 29.9793C15.7119 29.672 16.1399 29.5005 16.585 29.5005C17.0301 29.5005 17.4581 29.672 17.78 29.9793C17.9312 30.122 18.0518 30.2939 18.1343 30.4847C18.2169 30.6755 18.2596 30.881 18.26 31.0889C18.2598 31.2982 18.2172 31.5054 18.1347 31.6978C18.0522 31.8902 17.9315 32.0639 17.78 32.2084L15.78 34.1176C15.455 34.4263 15.0222 34.5959 14.5739 34.5903C14.1256 34.5847 13.6972 34.4043 13.38 34.0876ZM17.2 37.7861C17.0493 37.6432 16.9293 37.4712 16.8473 37.2804C16.7653 37.0897 16.723 36.8842 16.723 36.6766C16.723 36.469 16.7653 36.2635 16.8473 36.0728C16.9293 35.882 17.0493 35.7099 17.2 35.567L19.2 33.6578C19.5219 33.3505 19.9499 33.179 20.395 33.179C20.8401 33.179 21.2681 33.3505 21.59 33.6578C21.7413 33.8025 21.8616 33.9762 21.9439 34.1686C22.0261 34.3611 22.0685 34.5681 22.0685 34.7774C22.0685 34.9866 22.0261 35.1937 21.9439 35.3861C21.8616 35.5785 21.7413 35.7523 21.59 35.8969L19.59 37.8061C19.2667 38.1131 18.8368 38.2826 18.391 38.2789C17.9451 38.2751 17.5181 38.0985 17.2 37.7861ZM25.39 39.5954L23.39 41.5046C23.0688 41.8172 22.6383 41.9922 22.19 41.9922C21.7417 41.9922 21.3112 41.8172 20.99 41.5046C20.6928 41.2114 20.5238 40.8125 20.52 40.3951C20.5271 39.9734 20.6994 39.5714 21 39.2755L23 37.3663C23.323 37.0574 23.753 36.8855 24.2 36.8865C24.6335 36.8896 25.0504 37.0535 25.37 37.3463C25.3931 37.3885 25.4199 37.4287 25.45 37.4663L25.6 37.6162C25.7799 37.8702 25.8744 38.1747 25.87 38.4858C25.8696 38.6937 25.8269 38.8993 25.7443 39.09C25.6618 39.2808 25.5412 39.4527 25.39 39.5954ZM38.49 29.3096C38.1505 29.6215 37.7061 29.7946 37.245 29.7946C36.7839 29.7946 36.3395 29.6215 36 29.3096L31.55 24.9914C31.3564 24.83 31.109 24.7476 30.8573 24.7607C30.6055 24.7738 30.368 24.8815 30.1923 25.0622C30.0166 25.2429 29.9156 25.4832 29.9097 25.7352C29.9037 25.9871 29.9931 26.232 30.16 26.4208L34.55 30.679C34.7017 30.8276 34.8222 31.0049 34.9046 31.2006C34.987 31.3962 35.0296 31.6063 35.03 31.8186C35.0279 32.0407 34.9818 32.2602 34.8942 32.4644C34.8067 32.6686 34.6795 32.8534 34.52 33.0081C34.1777 33.3264 33.7275 33.5033 33.26 33.5033C32.7925 33.5033 32.3423 33.3264 32 33.0081V32.9881L27.32 28.45C27.129 28.2657 26.8727 28.1648 26.6073 28.1695C26.342 28.1742 26.0893 28.2841 25.905 28.4749C25.7207 28.6658 25.6198 28.9221 25.6244 29.1873C25.6291 29.4526 25.739 29.7051 25.93 29.8894L30.71 34.5275C31.0085 34.8763 31.1605 35.3268 31.1344 35.7851C31.1084 36.2433 30.9061 36.6738 30.57 36.9865C30.1996 37.3322 29.7118 37.5245 29.205 37.5245C28.6982 37.5245 28.2104 37.3322 27.84 36.9865L27 36.1868C26.93 36.1068 26.87 36.0069 26.79 35.9269C26.4227 35.5836 25.9897 35.3181 25.5172 35.1463C25.0446 34.9745 24.5421 34.9 24.04 34.9273C24.04 34.9273 24.04 34.8373 24.04 34.7974C24.0514 34.3208 23.965 33.8471 23.7861 33.4052C23.6073 32.9634 23.3397 32.5629 23 32.2284C22.6349 31.8849 22.2037 31.6192 21.7327 31.4473C21.2617 31.2755 20.7606 31.2012 20.26 31.2288C20.26 31.2288 20.26 31.1489 20.26 31.0989C20.2593 30.6225 20.1624 30.1513 19.9751 29.7133C19.7878 29.2753 19.514 28.8796 19.17 28.5499C18.8034 28.2056 18.3705 27.9395 17.8978 27.7677C17.425 27.5958 16.9222 27.5219 16.42 27.5503C16.4241 27.5071 16.4241 27.4636 16.42 27.4204C16.4201 26.9425 16.3236 26.4694 16.1363 26.0297C15.949 25.59 15.6747 25.1926 15.33 24.8614C14.6328 24.1983 13.7073 23.8285 12.745 23.8285C11.7827 23.8285 10.8572 24.1983 10.16 24.8614L8.83 26.0909C6.39 23.572 4 20.4033 4 16.8547C4.06779 13.9572 5.26511 11.2007 7.33675 9.17286C9.40839 7.14502 12.1905 6.00621 15.09 5.99918C17.954 6.05959 20.684 7.22347 22.71 9.24784L14.25 17.4445C14.0218 17.6648 13.8521 17.9385 13.7563 18.2408C13.6604 18.5431 13.6414 18.8645 13.7009 19.176C13.7605 19.4875 13.8967 19.7793 14.0973 20.025C14.2979 20.2706 14.5566 20.4625 14.85 20.5832C16.1718 21.1432 17.6339 21.2833 19.0381 20.9847C20.4423 20.6861 21.7207 19.9632 22.7 18.9139C23.84 17.8143 25.75 16.135 26.78 15.2454L38.35 26.7507C38.3909 26.8212 38.4377 26.888 38.49 26.9506C38.6501 27.1027 38.7778 27.2856 38.8654 27.4883C38.9531 27.691 38.9988 27.9093 39 28.1301C39.0012 28.3513 38.9565 28.5703 38.8687 28.7733C38.7809 28.9763 38.652 29.1589 38.49 29.3096Z" fill="#C0386D"/>
</svg>
