<?xml version="1.0" standalone="no"?>
<!DOCTYPE svg PUBLIC "-//W3C//DTD SVG 20010904//EN"
 "http://www.w3.org/TR/2001/REC-SVG-20010904/DTD/svg10.dtd">
<svg version="1.0" xmlns="http://www.w3.org/2000/svg"
 width="48.000000pt" height="48.000000pt" viewBox="0 0 48.000000 48.000000"
 preserveAspectRatio="xMidYMid meet">

<g transform="translate(0.000000,48.000000) scale(0.100000,-0.100000)"
fill="#000000" stroke="none">
<path d="M226 444 c-9 -8 -16 -19 -16 -24 0 -11 29 -40 40 -40 11 0 40 29 40
40 0 11 -29 40 -40 40 -5 0 -16 -7 -24 -16z m44 -24 c0 -13 -7 -20 -20 -20
-13 0 -20 7 -20 20 0 13 7 20 20 20 13 0 20 -7 20 -20z"/>
<path d="M218 353 c-20 -8 -38 -22 -41 -31 -3 -9 -8 -25 -12 -34 -4 -10 -3
-18 2 -18 5 0 14 13 20 29 6 16 21 34 33 41 22 12 22 12 18 -60 -3 -67 -6 -75
-37 -102 -40 -36 -36 -45 7 -15 17 12 34 34 37 50 7 30 9 31 36 16 16 -8 19
-16 13 -46 -5 -26 -4 -34 5 -29 6 4 11 22 11 40 0 25 -7 38 -25 50 -20 13 -25
25 -25 56 0 38 1 39 24 29 20 -10 29 -8 51 9 14 11 22 23 17 26 -5 3 -17 -3
-27 -14 -17 -19 -18 -19 -44 -1 -24 17 -29 18 -63 4z"/>
<path d="M395 285 c-27 -24 -46 -44 -41 -45 5 0 18 7 28 17 17 15 18 13 18
-54 l0 -69 -187 -25 -188 -24 -3 -27 -3 -28 200 0 201 0 0 130 c0 119 2 131
20 142 20 13 27 28 13 28 -5 0 -30 -20 -58 -45z m5 -200 l0 -35 -180 0 c-108
0 -180 4 -180 10 0 10 17 14 195 39 179 26 165 27 165 -14z"/>
</g>
</svg>
