<svg width="48" height="48" viewBox="0 0 48 48" fill="none" xmlns="http://www.w3.org/2000/svg">
<path d="M45.785 15.38C45.6199 15.1739 45.3801 15.0415 45.1179 15.0115C44.8556 14.9815 44.5921 15.0565 44.3848 15.22L35.3838 22.35C35.2226 22.4793 35.1054 22.6553 35.0484 22.8539C34.9913 23.0525 34.9972 23.2638 35.0651 23.4589C35.1331 23.6541 35.2599 23.8233 35.4279 23.9435C35.596 24.0637 35.7972 24.1288 36.0038 24.13C36.2294 24.1287 36.448 24.0512 36.6239 23.91L40.0043 21.24V34.24L2.87007 39.24C2.62795 39.2717 2.4058 39.3909 2.24552 39.5751C2.08524 39.7594 1.9979 39.9958 1.99997 40.24V44C1.99997 44.2652 2.10534 44.5196 2.2929 44.7071C2.48046 44.8946 2.73484 45 3.00009 45H41.0044C41.2697 45 41.524 44.8946 41.7116 44.7071C41.8992 44.5196 42.0045 44.2652 42.0045 44V20C42 19.8975 41.9798 19.7963 41.9445 19.7L45.6249 16.78C45.831 16.615 45.9635 16.3752 45.9935 16.113C46.0234 15.8507 45.9485 15.5872 45.785 15.38ZM40.0043 43H4.0002V41.11L40.0043 36.26V43Z" fill="#C0386D"/>
<path d="M16.6817 21.26C16.7879 21.2744 16.8955 21.2744 17.0017 21.26C17.2114 21.2605 17.4159 21.1952 17.5864 21.0732C17.7569 20.9511 17.8847 20.7786 17.9518 20.58L19.672 15.5L24.1825 13.5V21.84L22.5024 28.04L17.3318 32.22C17.229 32.3025 17.1436 32.4045 17.0804 32.5202C17.0173 32.6358 16.9776 32.7628 16.9636 32.8938C16.9497 33.0249 16.9618 33.1573 16.9992 33.2837C17.0366 33.41 17.0987 33.5277 17.1818 33.63C17.2759 33.746 17.3948 33.8395 17.5298 33.9035C17.6648 33.9675 17.8124 34.0005 17.9618 34C18.1909 34.001 18.4133 33.9233 18.5919 33.78L24.0025 29.39C24.1703 29.2633 24.2901 29.0835 24.3426 28.88L25.7327 23.76L29.5132 26.4L28.7031 32.17C28.6848 32.3007 28.6926 32.4338 28.726 32.5615C28.7594 32.6893 28.8177 32.8091 28.8977 32.9142C28.9777 33.0192 29.0776 33.1074 29.1918 33.1736C29.3061 33.2398 29.4323 33.2828 29.5632 33.3H29.7032C29.9459 33.3024 30.1811 33.2165 30.3651 33.0582C30.5491 32.9 30.6693 32.6803 30.7033 32.44L31.5934 26.05C31.6171 25.8684 31.5905 25.6837 31.5164 25.5162C31.4423 25.3487 31.3237 25.2047 31.1733 25.1L26.1728 21.62V13.92L30.0032 16.63C30.1732 16.7487 30.3759 16.8116 30.5833 16.81C30.8229 16.8072 31.0536 16.7185 31.2334 16.56L35.6339 12.76C35.8354 12.5876 35.9603 12.3422 35.9809 12.0778C36.0015 11.8134 35.9163 11.5516 35.7439 11.35C35.5715 11.1484 35.326 11.0236 35.0616 11.003C34.7971 10.9824 34.5353 11.0676 34.3337 11.24L30.5333 14.5L25.7627 11.14H25.6527C25.5946 11.1 25.5304 11.0697 25.4627 11.05H25.2827H25.0927C25.0263 11.0406 24.959 11.0406 24.8926 11.05H24.7826L18.4619 13.82C18.3333 13.8759 18.2178 13.9581 18.1231 14.0615C18.0283 14.1649 17.9563 14.287 17.9118 14.42L16.0516 19.96C16.0046 20.0865 15.9837 20.2213 15.9901 20.3561C15.9965 20.4909 16.0302 20.623 16.0891 20.7445C16.1479 20.866 16.2308 20.9743 16.3327 21.0629C16.4345 21.1515 16.5532 21.2185 16.6817 21.26Z" fill="#C0386D"/>
<path d="M25.0022 10C25.7933 10 26.5667 9.76541 27.2244 9.32588C27.8822 8.88635 28.3949 8.26164 28.6977 7.53074C29.0004 6.79983 29.0796 5.99556 28.9253 5.21964C28.771 4.44372 28.39 3.73098 27.8306 3.17157C27.2712 2.61216 26.5585 2.2312 25.7825 2.07686C25.0066 1.92252 24.2023 2.00173 23.4714 2.30448C22.7405 2.60723 22.1158 3.11992 21.6763 3.77772C21.2368 4.43552 21.0022 5.20888 21.0022 6C21.0022 7.06087 21.4236 8.07828 22.1737 8.82843C22.9239 9.57857 23.9413 10 25.0022 10ZM25.0022 4C25.3977 4 25.7844 4.1173 26.1133 4.33706C26.4422 4.55683 26.6986 4.86918 26.8499 5.23463C27.0013 5.60009 27.0409 6.00222 26.9637 6.39018C26.8866 6.77814 26.6961 7.13451 26.4164 7.41422C26.1367 7.69392 25.7803 7.8844 25.3923 7.96157C25.0044 8.03874 24.6023 7.99914 24.2368 7.84776C23.8713 7.69639 23.559 7.44004 23.3392 7.11114C23.1195 6.78224 23.0022 6.39556 23.0022 6C23.0022 5.46957 23.2129 4.96086 23.588 4.58579C23.963 4.21072 24.4717 4 25.0022 4Z" fill="#C0386D"/>
</svg>
