<?xml version="1.0" encoding="UTF-8"?>
<svg version="1.1" xmlns="http://www.w3.org/2000/svg" width="44" height="44">
<path d="M0 0 C1.25554688 -0.00128906 2.51109375 -0.00257813 3.8046875 -0.00390625 C4.46178711 -0.00181152 5.11888672 0.0002832 5.79589844 0.00244141 C7.80411335 0.00779016 9.81210459 0.00249559 11.8203125 -0.00390625 C13.07585938 -0.00261719 14.33140625 -0.00132812 15.625 0 C16.78644531 0.00112793 17.94789062 0.00225586 19.14453125 0.00341797 C21.8125 0.1328125 21.8125 0.1328125 22.8125 1.1328125 C22.91196453 2.90140443 22.94330217 4.67392701 22.9453125 6.4453125 C22.94724609 8.05792969 22.94724609 8.05792969 22.94921875 9.703125 C22.94535156 10.83492187 22.94148438 11.96671875 22.9375 13.1328125 C22.94330078 14.83050781 22.94330078 14.83050781 22.94921875 16.5625 C22.94792969 17.63757813 22.94664063 18.71265625 22.9453125 19.8203125 C22.94418457 20.81417969 22.94305664 21.80804687 22.94189453 22.83203125 C22.8125 25.1328125 22.8125 25.1328125 21.8125 26.1328125 C19.7519469 26.23274782 17.6879741 26.26362156 15.625 26.265625 C14.36945312 26.26691406 13.11390625 26.26820312 11.8203125 26.26953125 C11.16321289 26.26743652 10.50611328 26.2653418 9.82910156 26.26318359 C7.82088665 26.25783484 5.81289541 26.26312941 3.8046875 26.26953125 C2.54914062 26.26824219 1.29359375 26.26695313 0 26.265625 C-1.16144531 26.26449707 -2.32289063 26.26336914 -3.51953125 26.26220703 C-6.1875 26.1328125 -6.1875 26.1328125 -7.1875 25.1328125 C-7.28696453 23.36422057 -7.31830217 21.59169799 -7.3203125 19.8203125 C-7.32160156 18.74523437 -7.32289063 17.67015625 -7.32421875 16.5625 C-7.31841797 14.86480469 -7.31841797 14.86480469 -7.3125 13.1328125 C-7.31636719 12.00101563 -7.32023438 10.86921875 -7.32421875 9.703125 C-7.32292969 8.62804687 -7.32164062 7.55296875 -7.3203125 6.4453125 C-7.31918457 5.45144531 -7.31805664 4.45757812 -7.31689453 3.43359375 C-7.05627898 -1.20044586 -3.96938461 0.00385484 0 0 Z M-5.1875 4.1328125 C-5.49653289 6.03509555 -5.49653289 6.03509555 -5.453125 8.1953125 C-5.45570312 8.99195313 -5.45828125 9.78859375 -5.4609375 10.609375 C-5.45320312 11.44210938 -5.44546875 12.27484375 -5.4375 13.1328125 C-5.44523438 13.96554688 -5.45296875 14.79828125 -5.4609375 15.65625 C-5.45835938 16.45289063 -5.45578125 17.24953125 -5.453125 18.0703125 C-5.45086914 18.80121094 -5.44861328 19.53210938 -5.44628906 20.28515625 C-5.34198561 22.37978614 -5.34198561 22.37978614 -3.1875 24.1328125 C-0.89359569 24.44333091 -0.89359569 24.44333091 1.75 24.3984375 C2.72710938 24.40101562 3.70421875 24.40359375 4.7109375 24.40625 C5.73445312 24.39851563 6.75796875 24.39078125 7.8125 24.3828125 C8.83601563 24.39054687 9.85953125 24.39828125 10.9140625 24.40625 C12.37972656 24.40238281 12.37972656 24.40238281 13.875 24.3984375 C15.22271484 24.39505371 15.22271484 24.39505371 16.59765625 24.39160156 C19.01792165 24.34090192 19.01792165 24.34090192 20.8125 22.1328125 C21.12153289 20.23052945 21.12153289 20.23052945 21.078125 18.0703125 C21.08070312 17.27367187 21.08328125 16.47703125 21.0859375 15.65625 C21.07820313 14.82351562 21.07046875 13.99078125 21.0625 13.1328125 C21.07023437 12.30007812 21.07796875 11.46734375 21.0859375 10.609375 C21.08207031 9.41441406 21.08207031 9.41441406 21.078125 8.1953125 C21.07586914 7.46441406 21.07361328 6.73351562 21.07128906 5.98046875 C20.96698561 3.88583886 20.96698561 3.88583886 18.8125 2.1328125 C16.51859569 1.82229409 16.51859569 1.82229409 13.875 1.8671875 C12.89789062 1.86460938 11.92078125 1.86203125 10.9140625 1.859375 C9.89054687 1.86710938 8.86703125 1.87484375 7.8125 1.8828125 C6.78898438 1.87507812 5.76546875 1.86734375 4.7109375 1.859375 C3.73382813 1.86195312 2.75671875 1.86453125 1.75 1.8671875 C0.85152344 1.86944336 -0.04695312 1.87169922 -0.97265625 1.87402344 C-3.39292165 1.92472308 -3.39292165 1.92472308 -5.1875 4.1328125 Z " fill="#BF376C" transform="translate(7.1875,7.8671875)"/>
<path d="M0 0 C0 7.26 0 14.52 0 22 C-9 19 -9 19 -12 17 C-13.02694388 13.1909718 -13.04289387 9.80255149 -12 6 C-8.78836565 2.95039405 -4.57348264 0 0 0 Z M-6.5625 6 C-7.696875 6.66 -8.83125 7.32 -10 8 C-10 10.31 -10 12.62 -10 15 C-6.19572508 17.2013866 -6.19572508 17.2013866 -2 18 C-2 13.38 -2 8.76 -2 4 C-3.74206308 4 -5.08595092 5.1409169 -6.5625 6 Z " fill="#BE376C" transform="translate(44,10)"/>
</svg>
