<svg width="48" height="48" viewBox="0 0 48 48" fill="none" xmlns="http://www.w3.org/2000/svg">
<path fill-rule="evenodd" clip-rule="evenodd" d="M11.7775 5.70767C15.3953 3.29028 19.6488 2 24 2C29.8348 2 35.4306 4.31785 39.5564 8.44365C43.6822 12.5695 46 18.1652 46 24C46 28.3512 44.7097 32.6047 42.2923 36.2225C39.875 39.8404 36.439 42.6602 32.419 44.3253C28.3991 45.9905 23.9756 46.4261 19.708 45.5773C15.4404 44.7284 11.5204 42.6331 8.44366 39.5564C5.36691 36.4796 3.27161 32.5596 2.42273 28.292C1.57386 24.0244 2.00953 19.6009 3.67466 15.581C5.33979 11.561 8.15958 8.12506 11.7775 5.70767ZM12.8886 40.6294C16.1776 42.827 20.0444 44 24 44C29.3043 44 34.3914 41.8929 38.1421 38.1421C41.8929 34.3914 44 29.3043 44 24C44 20.0444 42.827 16.1776 40.6294 12.8886C38.4318 9.59961 35.3082 7.03616 31.6537 5.52241C27.9992 4.00866 23.9778 3.61259 20.0982 4.38429C16.2186 5.156 12.6549 7.06081 9.85787 9.85786C7.06082 12.6549 5.15601 16.2186 4.3843 20.0982C3.6126 23.9778 4.00867 27.9991 5.52242 31.6537C7.03617 35.3082 9.59962 38.4318 12.8886 40.6294ZM23.97 33C29.51 33 33.21 28.43 33.21 28.38H33.2401C33.4045 28.1705 33.6454 28.0349 33.9098 28.003C34.1743 27.9711 34.4405 28.0456 34.6501 28.21C34.8596 28.3744 34.9952 28.6154 35.0271 28.8798C35.0589 29.1442 34.9845 29.4105 34.82 29.62C34.6501 29.84 30.56 35 24 35C17.44 35 13.38 29.83 13.21 29.61C13.0672 29.3993 13.0101 29.1421 13.0503 28.8907C13.0905 28.6394 13.2251 28.4129 13.4266 28.2573C13.628 28.1017 13.8813 28.0288 14.1346 28.0535C14.3879 28.0782 14.6224 28.1985 14.79 28.39C14.85 28.47 18.43 33 23.97 33Z" fill="#C0386D"/>
</svg>
