<?xml version="1.0" standalone="no"?>
<!DOCTYPE svg PUBLIC "-//W3C//DTD SVG 20010904//EN"
 "http://www.w3.org/TR/2001/REC-SVG-20010904/DTD/svg10.dtd">
<svg version="1.0" xmlns="http://www.w3.org/2000/svg"
 width="48.000000pt" height="48.000000pt" viewBox="0 0 48.000000 48.000000"
 preserveAspectRatio="xMidYMid meet">

<g transform="translate(0.000000,48.000000) scale(0.100000,-0.100000)"
fill="#000000" stroke="none">
<path d="M176 448 c-60 -16 -130 -91 -146 -156 -19 -79 0 -143 60 -202 89 -90
211 -90 300 0 90 89 90 211 1 300 -64 63 -128 81 -215 58z m152 -27 c72 -37
112 -102 112 -181 0 -113 -87 -200 -200 -200 -214 0 -277 282 -85 383 42 23
127 21 173 -2z"/>
<path d="M135 190 c-7 -12 47 -47 87 -55 42 -10 145 41 124 62 -3 3 -19 -6
-36 -21 -42 -35 -97 -35 -138 -1 -18 15 -33 21 -37 15z"/>
</g>
</svg>
